<?xml version="1.0" encoding="UTF-8" standalone="no"?>
<!-- Generator: Adobe Illustrator 16.0.0, SVG Export Plug-In . SVG Version: 6.00 Build 0)  -->

<svg
   xmlns:dc="http://purl.org/dc/elements/1.1/"
   xmlns:cc="http://creativecommons.org/ns#"
   xmlns:rdf="http://www.w3.org/1999/02/22-rdf-syntax-ns#"
   xmlns:svg="http://www.w3.org/2000/svg"
   xmlns="http://www.w3.org/2000/svg"
   xmlns:sodipodi="http://sodipodi.sourceforge.net/DTD/sodipodi-0.dtd"
   xmlns:inkscape="http://www.inkscape.org/namespaces/inkscape"
   version="1.1"
   id="Capa_1"
   x="0px"
   y="0px"
   width="22"
   height="22"
   viewBox="0 0 22.000001 22.000001"
   xml:space="preserve"
   inkscape:version="0.48.4 r9939"
   sodipodi:docname="add_to_basket.svg"><metadata
   id="metadata45"><rdf:RDF><cc:Work
       rdf:about=""><dc:format>image/svg+xml</dc:format><dc:type
         rdf:resource="http://purl.org/dc/dcmitype/StillImage" /><dc:title /></cc:Work></rdf:RDF></metadata><defs
   id="defs43">
		
		
	</defs><sodipodi:namedview
   pagecolor="#ffffff"
   bordercolor="#666666"
   borderopacity="1"
   objecttolerance="10"
   gridtolerance="10"
   guidetolerance="10"
   inkscape:pageopacity="0"
   inkscape:pageshadow="2"
   inkscape:window-width="1920"
   inkscape:window-height="1027"
   id="namedview41"
   showgrid="false"
   inkscape:zoom="22.627417"
   inkscape:cx="14.989476"
   inkscape:cy="5.3517341"
   inkscape:window-x="1272"
   inkscape:window-y="284"
   inkscape:window-maximized="1"
   inkscape:current-layer="g3" />
<g
   id="g3"
   transform="translate(0,-24.96)">
	<path
   inkscape:connector-curvature="0"
   id="path7"
   d="m 20.776287,30.627069 h -2.888584 v -2.356711 c 0,-1.517501 -1.195662,-2.758071 -2.712228,-2.758071 H 7.7395332 c -1.5170322,0 -2.7580707,1.241506 -2.7580707,2.758071 v 2.356711 H 2.1139286 c -0.6614515,0 -1.21156823,0.537487 -1.21156823,1.198937 v 2.603235 c 0,0.66145 0.55011673,1.213439 1.21156823,1.213439 h 0.3569207 l 0.5959611,3.266556 c 0.1679349,-0.02059 0.3391454,-0.03556 0.5126945,-0.03556 2.3160129,0 4.2007255,1.884712 4.2007255,4.200726 0,0.246992 -0.022453,0.492112 -0.063151,0.726005 H 17.957872 c 0.578185,0 1.074506,-0.407911 1.178355,-0.97674 l 1.308867,-7.18146 h 0.332129 c 0.660983,0 1.190518,-0.552456 1.190518,-1.213439 V 31.825535 C 21.966805,31.165018 21.43727,30.627064 20.776287,30.627064 z M 7.2221616,28.270358 c 0,-0.289561 0.2278116,-0.518309 0.5173716,-0.518309 h 7.4359418 c 0.288623,0 0.505211,0.228748 0.505211,0.518309 v 2.356711 H 7.2221616 v -2.356711 z m 1.6381903,11.247001 c 0,0.460302 -0.3587933,0.833129 -0.8186276,0.833129 -0.4603024,0 -0.8195627,-0.372827 -0.8195627,-0.833129 v -4.573085 c 0,-0.460302 0.3592603,-0.833128 0.8195627,-0.833128 0.4598343,0 0.8186276,0.372826 0.8186276,0.833128 v 4.573085 z m 3.4438461,0 c 0,0.460302 -0.375633,0.833129 -0.835467,0.833129 -0.459835,0 -0.836403,-0.372827 -0.836403,-0.833129 v -4.573085 c 0,-0.460302 0.376568,-0.833128 0.836403,-0.833128 0.459834,0 0.835467,0.372826 0.835467,0.833128 v 4.573085 z m 3.410635,0 c 0,0.460302 -0.3761,0.833129 -0.835936,0.833129 -0.459366,0 -0.835935,-0.372827 -0.835935,-0.833129 v -4.573085 c 0,-0.460302 0.376569,-0.833128 0.835935,-0.833128 0.459836,0 0.835936,0.372826 0.835936,0.833128 v 4.573085 z"
   style="fill:#ffffff" /><path
   inkscape:connector-curvature="0"
   id="path9"
   d="M 3.5795049,39.491163 C 1.6017013,39.491163 0,41.093333 0,43.070668 c 0,1.977803 1.6021703,3.579974 3.5795049,3.579974 1.9768675,0 3.5790379,-1.602639 3.5790379,-3.579974 0,-1.977335 -1.6026375,-3.579505 -3.5790379,-3.579505 z m 2.0372115,3.525711 c 0,0.248395 -0.2016151,0.45001 -0.4500098,0.45001 H 4.0122075 v 1.154967 c 0,0.248393 -0.2016161,0.45001 -0.4500108,0.45001 h -0.00231 c -0.2483948,0 -0.4500119,-0.201617 -0.4500119,-0.45001 V 43.466884 H 1.9544456 c -0.2483957,0 -0.4500118,-0.201615 -0.4500118,-0.45001 v -0.0028 c 0,-0.248394 0.2016161,-0.450478 0.4500118,-0.450478 H 3.1098779 V 41.44231 c 0,-0.248394 0.2016171,-0.450012 0.4500119,-0.450012 h 0.00279 c 0.2483947,0 0.4500118,0.201618 0.4500118,0.450012 v 1.120831 h 1.1544981 c 0.2483937,0 0.4500108,0.202084 0.4500108,0.450479 l -4.68e-4,0.0033 0,0 z"
   style="fill:#ffffff" />
</g>
<g
   id="g11"
   transform="translate(0,-24.96)">
</g>
<g
   id="g13"
   transform="translate(0,-24.96)">
</g>
<g
   id="g15"
   transform="translate(0,-24.96)">
</g>
<g
   id="g17"
   transform="translate(0,-24.96)">
</g>
<g
   id="g19"
   transform="translate(0,-24.96)">
</g>
<g
   id="g21"
   transform="translate(0,-24.96)">
</g>
<g
   id="g23"
   transform="translate(0,-24.96)">
</g>
<g
   id="g25"
   transform="translate(0,-24.96)">
</g>
<g
   id="g27"
   transform="translate(0,-24.96)">
</g>
<g
   id="g29"
   transform="translate(0,-24.96)">
</g>
<g
   id="g31"
   transform="translate(0,-24.96)">
</g>
<g
   id="g33"
   transform="translate(0,-24.96)">
</g>
<g
   id="g35"
   transform="translate(0,-24.96)">
</g>
<g
   id="g37"
   transform="translate(0,-24.96)">
</g>
<g
   id="g39"
   transform="translate(0,-24.96)">
</g>
</svg>