<?xml version="1.0" encoding="UTF-8" standalone="no"?>
<!-- Generator: Adobe Illustrator 16.0.0, SVG Export Plug-In . SVG Version: 6.00 Build 0)  -->

<svg
   xmlns:dc="http://purl.org/dc/elements/1.1/"
   xmlns:cc="http://creativecommons.org/ns#"
   xmlns:rdf="http://www.w3.org/1999/02/22-rdf-syntax-ns#"
   xmlns:svg="http://www.w3.org/2000/svg"
   xmlns="http://www.w3.org/2000/svg"
   xmlns:sodipodi="http://sodipodi.sourceforge.net/DTD/sodipodi-0.dtd"
   xmlns:inkscape="http://www.inkscape.org/namespaces/inkscape"
   version="1.1"
   id="Capa_1"
   x="0px"
   y="0px"
   width="22"
   height="22"
   viewBox="0 0 22 22"
   xml:space="preserve"
   inkscape:version="0.48.4 r9939"
   sodipodi:docname="supermarket-basket-svgrepo-com.svg"><metadata
   id="metadata41"><rdf:RDF><cc:Work
       rdf:about=""><dc:format>image/svg+xml</dc:format><dc:type
         rdf:resource="http://purl.org/dc/dcmitype/StillImage" /><dc:title></dc:title></cc:Work></rdf:RDF></metadata><defs
   id="defs39" /><sodipodi:namedview
   pagecolor="#ffffff"
   bordercolor="#666666"
   borderopacity="1"
   objecttolerance="10"
   gridtolerance="10"
   guidetolerance="10"
   inkscape:pageopacity="0"
   inkscape:pageshadow="2"
   inkscape:window-width="1280"
   inkscape:window-height="971"
   id="namedview37"
   showgrid="false"
   inkscape:zoom="14.068811"
   inkscape:cx="17.038908"
   inkscape:cy="7.8573553"
   inkscape:window-x="-8"
   inkscape:window-y="-8"
   inkscape:window-maximized="1"
   inkscape:current-layer="Capa_1" />
<g
   id="g3"
   transform="matrix(0.46370458,0,0,0.46370458,0,-0.22304752)"
   style="fill:#ffffff">
	<path
   d="M 38.271,14.645 V 9.331 c 0,-3.418 -2.727,-6.2 -6.145,-6.2 H 15.373 c -3.418,0 -6.201,2.781 -6.201,6.2 v 5.313 H 2.698 C 1.208,14.644 0,15.852 0,17.342 v 5.865 c 0,1.491 1.208,2.698 2.698,2.698 H 3.502 L 6.45,42.1 c 0.233,1.282 1.351,2.214 2.654,2.214 h 29.292 c 1.304,0 2.42,-0.932 2.654,-2.215 l 2.946,-16.194 h 0.75 c 1.49,0 2.698,-1.207 2.698,-2.698 v -5.865 c 0,-1.49 -1.208,-2.698 -2.698,-2.698 l -6.475,10e-4 0,0 z M 14.17,9.331 c 0,-0.652 0.551,-1.202 1.203,-1.202 h 16.756 c 0.651,0 1.146,0.55 1.146,1.202 v 5.313 H 14.17 V 9.331 z m 3.732,25.341 c 0,1.037 -0.829,1.877 -1.866,1.877 -1.036,0 -1.866,-0.84 -1.866,-1.877 V 24.368 c 0,-1.037 0.83,-1.876 1.866,-1.876 1.038,0 1.866,0.841 1.866,1.876 v 10.304 z m 7.718,0 c 0,1.037 -0.83,1.877 -1.866,1.877 -1.036,0 -1.867,-0.84 -1.867,-1.877 V 24.368 c 0,-1.037 0.831,-1.876 1.867,-1.876 1.037,0 1.866,0.841 1.866,1.876 v 10.304 z m 7.718,0 c 0,1.037 -0.83,1.877 -1.865,1.877 -1.037,0 -1.867,-0.84 -1.867,-1.877 V 24.368 c 0,-1.037 0.83,-1.876 1.867,-1.876 1.035,0 1.865,0.841 1.865,1.876 v 10.304 z"
   id="path5"
   inkscape:connector-curvature="0"
   style="fill:#ffffff" />
</g>
<g
   id="g7"
   transform="translate(0,-25.446)">
</g>
<g
   id="g9"
   transform="translate(0,-25.446)">
</g>
<g
   id="g11"
   transform="translate(0,-25.446)">
</g>
<g
   id="g13"
   transform="translate(0,-25.446)">
</g>
<g
   id="g15"
   transform="translate(0,-25.446)">
</g>
<g
   id="g17"
   transform="translate(0,-25.446)">
</g>
<g
   id="g19"
   transform="translate(0,-25.446)">
</g>
<g
   id="g21"
   transform="translate(0,-25.446)">
</g>
<g
   id="g23"
   transform="translate(0,-25.446)">
</g>
<g
   id="g25"
   transform="translate(0,-25.446)">
</g>
<g
   id="g27"
   transform="translate(0,-25.446)">
</g>
<g
   id="g29"
   transform="translate(0,-25.446)">
</g>
<g
   id="g31"
   transform="translate(0,-25.446)">
</g>
<g
   id="g33"
   transform="translate(0,-25.446)">
</g>
<g
   id="g35"
   transform="translate(0,-25.446)">
</g>
</svg>