<?xml version="1.0" encoding="UTF-8" standalone="no"?>
<!-- Created with Inkscape (http://www.inkscape.org/) -->

<svg
   xmlns:dc="http://purl.org/dc/elements/1.1/"
   xmlns:cc="http://creativecommons.org/ns#"
   xmlns:rdf="http://www.w3.org/1999/02/22-rdf-syntax-ns#"
   xmlns:svg="http://www.w3.org/2000/svg"
   xmlns="http://www.w3.org/2000/svg"
   xmlns:sodipodi="http://sodipodi.sourceforge.net/DTD/sodipodi-0.dtd"
   xmlns:inkscape="http://www.inkscape.org/namespaces/inkscape"
   width="500"
   height="500"
   id="svg2"
   version="1.1"
   inkscape:version="0.48.4 r9939"
   sodipodi:docname="delif_icon_raw.svg"
   inkscape:export-filename="C:\Users\Luis\Desktop\delif_icon_raw.png"
   inkscape:export-xdpi="90"
   inkscape:export-ydpi="90">
  <defs
     id="defs4" />
  <sodipodi:namedview
     id="base"
     pagecolor="#ffffff"
     bordercolor="#666666"
     borderopacity="1.0"
     inkscape:pageopacity="0.0"
     inkscape:pageshadow="2"
     inkscape:zoom="1.28"
     inkscape:cx="70.94234"
     inkscape:cy="234.84368"
     inkscape:document-units="px"
     inkscape:current-layer="layer1"
     showgrid="false"
     inkscape:window-width="1920"
     inkscape:window-height="1027"
     inkscape:window-x="1272"
     inkscape:window-y="284"
     inkscape:window-maximized="1" />
  <metadata
     id="metadata7">
    <rdf:RDF>
      <cc:Work
         rdf:about="">
        <dc:format>image/svg+xml</dc:format>
        <dc:type
           rdf:resource="http://purl.org/dc/dcmitype/StillImage" />
        <dc:title></dc:title>
      </cc:Work>
    </rdf:RDF>
  </metadata>
  <g
     inkscape:label="Layer 1"
     inkscape:groupmode="layer"
     id="layer1"
     transform="translate(0,-552.36218)">
    <g
       id="g3936"
       transform="translate(-0.29583288,-12.193971)">
      <path
         inkscape:export-ydpi="92.160004"
         inkscape:export-xdpi="92.160004"
         inkscape:export-filename="C:\Users\Luis\Desktop\aaaa.png"
         sodipodi:nodetypes="sssssssssssscscsssscscssscscsssssccsccssssssssssssssssssss"
         inkscape:connector-curvature="0"
         id="rect3907"
         d="m 145.44322,667.01772 c -11.99073,0 -21.64626,9.37056 -21.64626,21.01249 l 0,1.25845 c 0,11.64214 9.65553,21.02186 21.64626,21.02186 l 37.29853,0 c 11.99104,0 21.64658,-9.37972 21.64658,-21.02186 l 0,-1.25845 c 0,-11.64193 -9.65554,-21.01249 -21.64658,-21.01249 z m 90.30539,1.32379 c -11.99104,0 -21.64627,9.64618 -21.64627,21.63704 0,11.99085 9.65523,21.6464 21.64627,21.6464 l 32.71195,0 c 4.69665,1.52063 12.8102,5.76416 12.57571,16.94809 -0.23148,11.04651 -8.28001,15.73443 -13.0417,17.54454 l -213.331935,0 c -11.991037,0 -21.64656,8.03474 -21.64656,18.0107 l 0,7.27139 c 0,9.97615 9.655523,18.01071 21.64656,18.01071 l 122.858625,0 c 6.2291,1.06098 14.42169,4.66837 14.42169,16.31419 0,13.58924 -11.15904,17.2119 -17.33026,18.17843 l -16.80792,0 c -11.99104,0 -21.64656,9.65555 -21.64656,21.64641 0,11.99085 9.65552,21.64639 21.64656,21.64639 l 49.67856,0 c 4.46339,1.34313 13.15386,5.55837 13.15386,18.0388 0,13.47607 -10.12209,16.93507 -14.12338,17.77762 l -28.82461,0 c -9.66686,0 -17.45136,7.77521 -17.45136,17.44216 0,9.66674 7.7845,17.4513 17.45136,17.4513 l 88.68316,0 c 9.66686,0 17.45136,-7.78456 17.45136,-17.4513 0,-5.43766 -2.46406,-10.27541 -6.33917,-13.47079 l 68.80797,-119.18587 c 7.48648,-2.82753 12.67835,-9.08881 12.67835,-16.39805 l 0,-5.55594 31.30449,-54.21878 9.01476,0 c 11.99073,0 21.64627,-9.65555 21.64627,-21.6464 0,-11.99086 -9.65554,-21.63704 -21.64627,-21.63704 z M 95.997654,823.25038 c -11.99074,0 -21.63703,9.64638 -21.63703,21.63723 0,11.99086 9.64629,21.6464 21.63703,21.6464 l 1.05335,0 c 11.991036,0 21.646576,-9.65554 21.646576,-21.6464 0,-11.99085 -9.65554,-21.63723 -21.646576,-21.63723 z m 11.904826,79.76184 c -8.899596,0 -16.062416,7.34711 -16.062416,16.48173 l 0,0.98831 c 0,9.13483 7.16282,16.4911 16.062416,16.4911 l 27.68713,0 c 8.89962,0 16.06244,-7.35627 16.06244,-16.4911 l 0,-0.98831 c 0,-9.13462 -7.16282,-16.48173 -16.06244,-16.48173 z"
         style="fill:#ff7f2a;fill-opacity:1;fill-rule:nonzero;stroke:#ff7f2a;stroke-width:0;stroke-linecap:round;stroke-linejoin:round;stroke-miterlimit:4;stroke-opacity:1;stroke-dasharray:none" />
      <path
         inkscape:connector-curvature="0"
         id="path3905"
         d="m 397.74383,650.95379 a 21.376351,21.376351 0 0 0 -20.74926,17.4205 c -3.10558,16.57184 -6.01363,28.36934 -10.09724,36.7643 -4.08361,8.39496 -8.95562,14.32059 -19.89859,21.56297 -25.06976,16.59191 -72.31963,38.69811 -94.24087,81.40666 -12.57403,24.49747 -8.50764,50.34655 -3.43972,69.68203 2.46825,9.41703 5.49588,17.6306 7.98902,23.67118 -0.38519,0.59365 -0.64693,1.13345 -1.18356,1.73835 -4.15688,4.68582 -10.6034,10.75668 -16.97667,16.45887 -6.37328,5.70218 -12.50296,10.90846 -17.4575,15.8301 -2.47727,2.46082 -4.58889,3.43969 -7.95203,10.28216 -0.84079,1.71063 -1.88454,3.95129 -2.29315,7.87807 -0.40861,3.92678 0.43062,10.33724 4.14246,15.38626 7.42368,10.09806 16.07456,9.20563 19.63968,9.02464 5.46803,-0.28064 9.93027,-1.99625 13.49997,-3.84656 a 21.376351,21.376351 0 0 0 2.55205,-1.55343 c 6.85747,-4.85872 21.7733,-15.62676 38.46566,-28.18349 a 21.376351,21.376351 0 0 0 7.47122,0.40685 c 9.22002,-1.18669 14.02077,-2.41359 25.96432,-4.47534 a 21.376351,21.376351 0 0 0 0.88767,-0.18493 C 392.97265,925.2599 447.84209,881.59585 464.35601,820.68353 474.21059,784.33366 459.57662,746.44061 445.604,715.49473 431.63137,684.54886 415.86708,660.5702 415.86708,660.5702 a 21.376351,21.376351 0 0 0 -18.12325,-9.61641 z m 5.84383,75.85873 c 1.02348,2.14855 2.06032,4.01482 3.06985,6.25067 12.41194,27.48934 20.65309,60.97959 16.45887,76.45051 -5.77942,21.31764 -18.57788,40.40768 -36.98622,55.73822 25.90811,-36.23813 28.7051,-57.83361 31.03144,-64.68889 2.35614,-6.94274 1.40003,-15.04065 -0.92466,-20.1205 -2.32469,-5.07985 -6.73149,-8.98765 -6.73149,-8.98765 a 21.376351,21.376351 0 0 0 -34.50814,11.20682 c 0,0 -7.88453,32.36224 -39.42731,66.57519 -9.41215,10.20874 -23.92459,22.62519 -39.09443,35.06293 -1.81307,-4.4665 -3.99525,-10.43486 -5.80683,-17.34653 -3.7812,-14.42631 -4.32817,-30.66778 0.1109,-39.31635 12.10506,-23.58396 50.98187,-46.19723 79.81625,-65.28067 14.89204,-9.85598 25.74653,-22.02601 32.99171,-35.54375 z"
         style="font-size:medium;font-style:normal;font-variant:normal;font-weight:normal;font-stretch:normal;text-indent:0;text-align:start;text-decoration:none;line-height:normal;letter-spacing:normal;word-spacing:normal;text-transform:none;direction:ltr;block-progression:tb;writing-mode:lr-tb;text-anchor:start;baseline-shift:baseline;color:#000000;fill:#ff7f2a;fill-opacity:1;fill-rule:nonzero;stroke:none;stroke-width:36.11854553;marker:none;visibility:visible;display:inline;overflow:visible;enable-background:accumulate;font-family:Sans;-inkscape-font-specification:Sans" />
      <path
         inkscape:connector-curvature="0"
         id="path3901"
         d="m 397.85479,661.05102 a 11.277404,11.277404 0 0 0 -10.94792,9.20957 c -3.14159,16.76401 -6.09629,29.38157 -10.91093,39.27936 -4.81465,9.8978 -11.2726,17.56008 -23.41228,25.59446 -25.95903,17.18046 -71.23566,39.4061 -90.83814,77.59709 -10.65242,20.75368 -7.42698,44.29387 -2.66301,62.46971 3.52973,13.46688 7.47317,22.37229 9.72737,27.18487 -0.83904,1.47923 -2.36987,4.42137 -5.14108,7.54519 -4.679,5.27437 -11.32776,11.49044 -17.79037,17.27256 -6.46261,5.78213 -12.64435,11.04646 -17.08763,15.46024 -2.22165,2.20689 -3.97395,3.43985 -5.99177,7.54519 -0.50446,1.02634 -1.06921,2.34716 -1.29452,4.51232 -0.2253,2.16515 0.21584,5.59686 2.21918,8.3219 4.00668,5.45007 8.77243,5.03148 10.9849,4.91916 3.55912,-0.18267 6.67002,-1.32476 9.3945,-2.73698 a 11.277404,11.277404 0 0 0 1.33151,-0.77671 c 7.42315,-5.25952 24.15172,-17.33326 42.68209,-31.43828 a 11.277404,11.277404 0 0 0 7.80409,1.84931 c 8.75337,-1.12663 13.37425,-2.30461 25.52049,-4.40136 a 11.277404,11.277404 0 0 0 0.48082,-0.1109 c 66.05996,-14.34519 117.3571,-55.673 132.70654,-112.29015 8.51751,-31.4179 -4.63024,-68.29095 -18.2342,-98.42032 -13.60396,-30.12943 -28.96021,-53.51911 -28.96021,-53.51911 a 11.277404,11.277404 0 0 0 -9.57943,-5.06712 z m 4.73424,41.46155 c 4.22744,7.74582 8.76658,16.41639 13.27805,26.40816 12.7806,28.30583 22.50798,62.8161 16.97667,83.21899 -11.17711,41.22732 -45.822,74.103 -94.42581,90.32034 12.12374,-10.7228 23.20739,-21.6916 31.51226,-32.25198 33.11637,-42.11028 34.19623,-62.71642 37.65197,-72.89984 1.54821,-4.56205 0.92366,-9.5364 -0.51781,-12.68627 -1.44147,-3.14986 -4.06848,-5.43697 -4.06848,-5.43697 a 11.277404,11.277404 0 0 0 -18.19722,5.91779 c 0,0 -8.63333,34.96818 -41.83141,70.97655 -12.29681,13.33751 -31.60419,29.5586 -50.78208,44.82729 a 11.277404,11.277404 0 0 0 -1.18356,-4.10547 c 0,0 -6.01209,-11.70989 -10.09723,-27.29582 -4.08515,-15.58593 -5.47306,-34.09932 0.88767,-46.49168 14.42382,-28.10152 55.31085,-50.59535 83.25597,-69.09025 14.81242,-9.80329 24.76905,-21.25396 31.21636,-34.50814 2.6072,-5.35979 4.57421,-11.02929 6.32465,-16.9027 z"
         style="font-size:medium;font-style:normal;font-variant:normal;font-weight:normal;font-stretch:normal;text-indent:0;text-align:start;text-decoration:none;line-height:normal;letter-spacing:normal;word-spacing:normal;text-transform:none;direction:ltr;block-progression:tb;writing-mode:lr-tb;text-anchor:start;baseline-shift:baseline;color:#000000;fill:#ffffff;fill-opacity:1;fill-rule:nonzero;stroke:none;stroke-width:19.05486298;marker:none;visibility:visible;display:inline;overflow:visible;enable-background:accumulate;font-family:Sans;-inkscape-font-specification:Sans" />
      <path
         inkscape:export-ydpi="92.160004"
         inkscape:export-xdpi="92.160004"
         inkscape:export-filename="C:\Users\Luis\Desktop\aaaa.png"
         sodipodi:nodetypes="csscscscssccsc"
         inkscape:connector-curvature="0"
         id="path3809"
         d="m 397.99334,672.32713 c -6.36363,33.95725 -12.22968,54.36374 -39.18178,72.20142 -26.95207,17.83767 -70.02002,40.20184 -87.03317,73.34809 -17.01315,33.14604 9.19166,84.09658 9.19166,84.09658 0.11457,16.1092 -58.0576,55.31073 -46.82578,54.74054 1.42745,-0.0733 2.98165,-0.5594 4.76229,-1.48237 17.2011,-12.1875 82.10711,-58.69073 112.36333,-91.50761 35.04654,-38.01331 44.47655,-75.91161 44.47655,-75.91161 0,0 2.46677,2.07516 1.17476,5.88225 -4.45621,13.13164 -3.63764,28.59105 -35.84424,69.54447 -15.08394,19.1806 -42.11958,41.81083 -66.60818,60.44587 8.23227,-1.05956 12.68581,-2.21765 25.05839,-4.35346 62.88254,-13.65521 110.16177,-52.40258 124.21088,-104.22336 14.0488,-51.82079 -45.74471,-142.78081 -45.74471,-142.78081 z"
         style="fill:#ff7f2a;fill-opacity:1;stroke:none" />
    </g>
  </g>
</svg>
