<?xml version="1.0" encoding="UTF-8" standalone="no"?>
<!-- Created with Inkscape (http://www.inkscape.org/) -->

<svg
   xmlns:dc="http://purl.org/dc/elements/1.1/"
   xmlns:cc="http://creativecommons.org/ns#"
   xmlns:rdf="http://www.w3.org/1999/02/22-rdf-syntax-ns#"
   xmlns:svg="http://www.w3.org/2000/svg"
   xmlns="http://www.w3.org/2000/svg"
   xmlns:sodipodi="http://sodipodi.sourceforge.net/DTD/sodipodi-0.dtd"
   xmlns:inkscape="http://www.inkscape.org/namespaces/inkscape"
   width="40"
   height="40"
   id="svg2"
   version="1.1"
   inkscape:version="0.48.4 r9939"
   sodipodi:docname="New document 1">
  <defs
     id="defs4" />
  <sodipodi:namedview
     id="base"
     pagecolor="#ffffff"
     bordercolor="#666666"
     borderopacity="1.0"
     inkscape:pageopacity="0.0"
     inkscape:pageshadow="2"
     inkscape:zoom="11.2"
     inkscape:cx="18.703593"
     inkscape:cy="21.650919"
     inkscape:document-units="px"
     inkscape:current-layer="layer1"
     showgrid="false"
     inkscape:window-width="1920"
     inkscape:window-height="1027"
     inkscape:window-x="1272"
     inkscape:window-y="284"
     inkscape:window-maximized="1" />
  <metadata
     id="metadata7">
    <rdf:RDF>
      <cc:Work
         rdf:about="">
        <dc:format>image/svg+xml</dc:format>
        <dc:type
           rdf:resource="http://purl.org/dc/dcmitype/StillImage" />
        <dc:title></dc:title>
      </cc:Work>
    </rdf:RDF>
  </metadata>
  <g
     inkscape:label="Layer 1"
     inkscape:groupmode="layer"
     id="layer1"
     transform="translate(0,-1012.3622)">
    <g
       id="g3783"
       transform="matrix(0.0486119,0,0,0.0486119,7.4999047,1014.2835)">
      <path
         id="path3766"
         d="M 198.78125,450.90625 C 73.039678,457.20366 -21.4375,483.92949 -21.4375,515.9375 c 0,36.68749 124.09446,66.4375 277.15625,66.4375 153.06179,0 277.125,-29.75001 277.125,-66.4375 0,-32.00268 -94.42085,-58.72809 -220.125,-65.03125 l -0.8125,5.59375 c 112.46983,5.35345 196.65625,27.03936 196.65625,53 0,29.98117 -112.25307,54.28125 -250.71875,54.28125 -138.46568,0 -250.6875,-24.30008 -250.6875,-54.28125 0,-25.68053 82.360922,-47.16923 193,-52.8125 l -1.375,-5.78125 z"
         style="fill:#000000;fill-opacity:1;fill-rule:nonzero;stroke:#7e7e7e;stroke-width:0;stroke-linecap:round;stroke-linejoin:round;stroke-miterlimit:4;stroke-opacity:1;stroke-dasharray:none"
         inkscape:connector-curvature="0" />
      <path
         id="path3769"
         d="m 316.34375,425.6875 -1.4375,10.03125 C 494.58292,442.59583 632.5,482.89026 632.5,531.59375 632.5,585.12737 465.87034,628.5 260.3125,628.5 c -205.557839,0 -372.15625,-43.37263 -372.15625,-96.90625 0,-47.75233 132.56878,-87.42383 307.09375,-95.4375 l -2.4375,-10.25 c -196.6636415,8.90754 -347.09375,57.99024 -347.09375,117.1875 0,65.50826 184.211154,118.625 411.4375,118.625 227.22635,0 411.40625,-53.11674 411.40625,-118.625 0,-59.7132 -153.04305,-109.12977 -352.21875,-117.40625 z"
         style="fill:#000000;fill-opacity:1;fill-rule:nonzero;stroke:#7e7e7e;stroke-width:0;stroke-linecap:round;stroke-linejoin:round;stroke-miterlimit:4;stroke-opacity:1;stroke-dasharray:none"
         inkscape:connector-curvature="0" />
      <path
         sodipodi:nodetypes="czczzczcc"
         inkscape:connector-curvature="0"
         id="path3779"
         d="m 255.11864,507.62736 c 25.88985,-24.24591 40.87207,-117.69415 52.71791,-155.9539 11.84584,-38.25975 21.47318,-78.13889 21.47318,-78.13889 0,0 22.51912,-60.85959 -5.05076,-86.87312 -27.56988,-26.01353 -111.6663,-26.98672 -140.41121,0 -28.74491,26.98672 -6.06091,95.96449 -6.06091,95.96449 0,0 6.07125,30.98329 18.2335,68.24658 12.16225,37.26329 27.98359,135.00846 54.88617,157.01744 20.75238,-0.36231 -16.62697,0.24473 4.21212,-0.2626 z"
         style="fill:#000000;fill-opacity:1;stroke:#000000;stroke-width:1px;stroke-linecap:butt;stroke-linejoin:miter;stroke-opacity:1" />
      <path
         d="m 292.94424,119.48631 c 0,21.19989 -17.18591,38.3858 -38.3858,38.3858 -21.19989,0 -38.38579,-17.18591 -38.38579,-38.3858 0,-21.199887 17.1859,-38.385793 38.38579,-38.385793 21.19989,0 38.3858,17.185906 38.3858,38.385793 z"
         sodipodi:ry="38.385796"
         sodipodi:rx="38.385796"
         sodipodi:cy="119.48631"
         sodipodi:cx="254.55844"
         id="path3781"
         style="fill:#000000;fill-opacity:1;fill-rule:nonzero;stroke:#7e7e7e;stroke-width:0;stroke-linecap:round;stroke-linejoin:round;stroke-miterlimit:4;stroke-opacity:1;stroke-dasharray:none"
         sodipodi:type="arc" />
    </g>
  </g>
</svg>
