<?xml version="1.0" encoding="UTF-8" standalone="no"?>
<svg
   xmlns:dc="http://purl.org/dc/elements/1.1/"
   xmlns:cc="http://creativecommons.org/ns#"
   xmlns:rdf="http://www.w3.org/1999/02/22-rdf-syntax-ns#"
   xmlns:svg="http://www.w3.org/2000/svg"
   xmlns="http://www.w3.org/2000/svg"
   xmlns:sodipodi="http://sodipodi.sourceforge.net/DTD/sodipodi-0.dtd"
   xmlns:inkscape="http://www.inkscape.org/namespaces/inkscape"
   width="500"
   height="500"
   id="svg2"
   version="1.1"
   inkscape:version="1.0 (4035a4fb49, 2020-05-01)"
   sodipodi:docname="notification_icon.svg"
   inkscape:export-filename="C:\Users\Luis\Desktop\delef_icon_orange.png"
   inkscape:export-xdpi="92.199997"
   inkscape:export-ydpi="92.199997">
  <defs
     id="defs4" />
  <sodipodi:namedview
     id="base"
     pagecolor="#ffffff"
     bordercolor="#666666"
     borderopacity="1.0"
     inkscape:pageopacity="0.0"
     inkscape:pageshadow="2"
     inkscape:zoom="1.28"
     inkscape:cx="265.55692"
     inkscape:cy="171.54922"
     inkscape:document-units="px"
     inkscape:current-layer="layer1"
     showgrid="false"
     inkscape:window-width="1920"
     inkscape:window-height="1027"
     inkscape:window-x="1272"
     inkscape:window-y="284"
     inkscape:window-maximized="1"
     inkscape:document-rotation="0" />
  <metadata
     id="metadata7">
    <rdf:RDF>
      <cc:Work
         rdf:about="">
        <dc:format>image/svg+xml</dc:format>
        <dc:type
           rdf:resource="http://purl.org/dc/dcmitype/StillImage" />
        <dc:title />
      </cc:Work>
    </rdf:RDF>
  </metadata>
  <g
     inkscape:label="Layer 1"
     inkscape:groupmode="layer"
     id="layer1"
     transform="translate(0,-552.36218)">
    <path
       id="rect3907"
       style="fill:#ffffff;fill-opacity:1;fill-rule:nonzero;stroke:#ffffff;stroke-width:0;stroke-linecap:round;stroke-linejoin:round;stroke-miterlimit:4;stroke-dasharray:none;stroke-opacity:0"
       d="m 418.52721,619.76938 a 24.152179,24.152179 0 0 0 -0.36889,0.003 24.152179,24.152179 0 0 0 -23.43697,19.64588 H 235.12909 c -13.54815,0 -24.45891,10.8985 -24.45891,24.44643 0,13.54793 10.91076,24.45641 24.45891,24.45641 h 36.95878 c 5.30652,1.71809 14.47469,6.51365 14.20974,19.14988 -0.26153,12.48094 -9.35565,17.77768 -14.73565,19.82284 H 30.527259 c -13.548138,0 -24.4588998,9.07735 -24.4588998,20.34878 v 8.21528 c 0,11.2716 10.9107618,20.34876 24.4588998,20.34876 H 169.33955 c 7.03797,1.19875 16.29347,5.27644 16.29347,18.43453 0,15.35387 -12.606,19.44615 -19.57859,20.5382 h -18.99284 c -13.54813,0 -24.4564,10.90847 -24.4564,24.4564 0,13.54793 10.90827,24.4589 24.4564,24.4589 h 56.1311 c 5.04298,1.51755 14.86277,6.2801 14.86277,20.38117 0,15.226 -11.4386,19.13261 -15.95948,20.08456 h -32.567 c -10.92215,0 -19.71816,8.78594 -19.71816,19.7082 0,10.92201 8.79601,19.71816 19.71816,19.71816 h 46.77675 c -1.75622,1.69775 -3.60908,3.92612 -6.0468,8.88576 -0.94998,1.93277 -2.13054,4.46402 -2.5922,8.90072 -0.46168,4.43668 0.48706,11.68052 4.6809,17.38519 8.38768,11.40934 18.16267,10.39881 22.19074,10.19432 6.17808,-0.31709 11.21835,-2.25388 15.2516,-4.34442 a 24.152179,24.152179 0 0 0 2.88382,-1.75472 c 7.74794,-5.48965 24.60177,-17.65689 43.46171,-31.84418 a 24.152179,24.152179 0 0 0 8.44211,0.45861 c 10.41728,-1.34077 15.83974,-2.7253 29.33423,-5.05478 a 24.152179,24.152179 0 0 0 1.00448,-0.20938 c 77.85307,-16.90609 139.8472,-66.24147 158.50552,-135.06356 11.13425,-41.07009 -5.40169,-83.88301 -21.18873,-118.84738 -15.78704,-34.96434 -33.5964,-62.05576 -33.5964,-62.05576 a 24.152179,24.152179 0 0 0 -20.1095,-10.86731 z m -0.0174,11.40818 a 12.741832,12.741832 0 0 1 10.59812,5.72777 c 0,0 17.35104,26.42614 32.72153,60.46804 15.37051,34.04182 30.22406,75.70271 20.60051,111.20038 -17.34264,63.96917 -75.30063,110.66274 -149.93881,126.87072 a 12.741832,12.741832 0 0 1 -0.54337,0.12712 c -13.72349,2.36903 -18.9432,3.69962 -28.83324,4.97255 a 12.741832,12.741832 0 0 1 -8.81845,-2.08872 c -20.93663,15.93662 -39.8378,29.57811 -48.22489,35.52061 a 12.741832,12.741832 0 0 1 -1.50298,0.87736 c -3.07826,1.59561 -6.59426,2.88432 -10.61556,3.0907 -2.49976,0.12692 -7.88319,0.60201 -12.41015,-5.55578 -2.26349,-3.07891 -2.76202,-6.9579 -2.50745,-9.4042 0.25455,-2.44633 0.89063,-3.93754 1.4606,-5.09717 2.27983,-4.63843 4.26198,-6.03337 6.77212,-8.52684 5.02026,-4.98694 12.00259,-10.93447 19.30441,-17.46743 7.30181,-6.53296 14.81542,-13.55449 20.10202,-19.51378 3.13107,-3.52946 4.85952,-6.85553 5.80752,-8.52685 -2.54692,-5.43753 -7.00135,-15.49945 -10.98944,-30.71506 -5.38258,-20.53607 -9.02724,-47.13148 3.00845,-70.58013 22.14797,-43.15026 73.30372,-68.26225 102.63366,-87.67368 13.71608,-9.07768 21.01306,-17.73489 26.45291,-28.91797 5.43985,-11.18308 8.77834,-25.44055 12.32789,-44.38146 a 12.741832,12.741832 0 0 1 12.37028,-10.40369 12.741832,12.741832 0 0 1 0.22432,-0.002 z m -285.41365,6.74221 c -13.54779,0 -24.4564,10.58737 -24.4564,23.74107 v 1.42321 c 0,13.15393 10.90861,23.75103 24.4564,23.75103 h 42.1407 c 13.54815,0 24.4589,-10.5971 24.4589,-23.75103 v -1.42321 c 0,-13.1537 -10.91075,-23.74107 -24.4589,-23.74107 z m 285.34386,5.99945 c -7.18996,38.36677 -13.81731,61.42304 -44.26928,81.57702 -30.45193,20.15399 -79.11172,45.42267 -98.33411,82.87312 -19.2224,37.45023 10.38626,95.01659 10.38626,95.01659 0.12944,18.20106 -65.59864,62.49311 -52.9083,61.84888 1.61281,-0.0828 3.36945,-0.63213 5.38131,-1.67496 19.43474,-13.77011 92.77033,-66.31057 126.95547,-103.38888 39.59752,-42.94953 50.25129,-85.76942 50.25129,-85.76942 0,0 2.7858,2.34357 1.32602,6.64502 -5.03487,14.83685 -4.10935,32.30462 -40.49814,78.57605 -17.04266,21.6713 -47.58748,47.2396 -75.25605,68.29449 9.30127,-1.19715 14.33308,-2.50455 28.31231,-4.9177 C 400.83496,907.57102 454.25355,863.79125 470.127,805.24128 486.0001,746.69129 418.44002,643.91922 418.44002,643.91922 Z M 77.229229,814.44109 c -13.547789,0 -24.44644,10.89851 -24.44644,24.44645 0,13.54793 10.898651,24.45889 24.44644,24.45889 h 1.19141 c 13.548135,0 24.456401,-10.91096 24.456401,-24.45889 0,-13.54794 -10.908266,-24.44645 -24.456401,-24.44645 z m 13.452014,90.11882 c -10.055259,0 -18.147886,8.30068 -18.147886,18.62147 v 1.11664 c 0,10.32103 8.092627,18.63393 18.147886,18.63393 h 31.280877 c 10.05528,0 18.1479,-8.3129 18.1479,-18.63393 v -1.11664 c 0,-10.32079 -8.09262,-18.62147 -18.1479,-18.62147 z" />
  </g>
</svg>
