<?xml version="1.0" encoding="UTF-8" standalone="no"?>
<!-- Created with Inkscape (http://www.inkscape.org/) -->

<svg
   xmlns:dc="http://purl.org/dc/elements/1.1/"
   xmlns:cc="http://creativecommons.org/ns#"
   xmlns:rdf="http://www.w3.org/1999/02/22-rdf-syntax-ns#"
   xmlns:svg="http://www.w3.org/2000/svg"
   xmlns="http://www.w3.org/2000/svg"
   xmlns:sodipodi="http://sodipodi.sourceforge.net/DTD/sodipodi-0.dtd"
   xmlns:inkscape="http://www.inkscape.org/namespaces/inkscape"
   width="141.73228"
   height="141.73228"
   viewBox="0 0 40.000001 40.000001"
   version="1.1"
   id="svg8"
   sodipodi:docname="profile_icon.svg"
   inkscape:version="0.48.4 r9939">
  <defs
     id="defs2">
    <style
       id="style3848">.cls-1{fill:#919ea8;}.cls-2{fill:#fff;}.cls-3{fill:none;stroke:#3d344c;stroke-linecap:round;stroke-linejoin:round;stroke-width:2px;}</style>
  </defs>
  <sodipodi:namedview
     id="base"
     pagecolor="#ffffff"
     bordercolor="#666666"
     borderopacity="1.0"
     inkscape:pageopacity="0.0"
     inkscape:pageshadow="2"
     inkscape:zoom="2.8"
     inkscape:cx="14.548666"
     inkscape:cy="6.8105417"
     inkscape:document-units="mm"
     inkscape:current-layer="layer1"
     showgrid="false"
     inkscape:window-width="1920"
     inkscape:window-height="1027"
     inkscape:window-x="1272"
     inkscape:window-y="284"
     inkscape:window-maximized="1"
     units="mm" />
  <metadata
     id="metadata5">
    <rdf:RDF>
      <cc:Work
         rdf:about="">
        <dc:format>image/svg+xml</dc:format>
        <dc:type
           rdf:resource="http://purl.org/dc/dcmitype/StillImage" />
        <dc:title />
      </cc:Work>
    </rdf:RDF>
  </metadata>
  <g
     inkscape:label="Layer 1"
     inkscape:groupmode="layer"
     id="layer1"
     transform="translate(0,-257)">
    <path
       style="fill:#000000;fill-opacity:1;fill-rule:nonzero;stroke:none"
       d="M 0 46.21875 L 0 135.09375 C -0.020585941 135.31202 0 135.49425 0 135.71875 C 0 139.0507 2.2914246 141.71875 5.15625 141.71875 L 136.5625 141.71875 C 139.42732 141.71875 141.71875 139.0507 141.71875 135.71875 C 141.71875 135.49304 141.7393 135.31195 141.71875 135.09375 L 141.71875 46.21875 L 0 46.21875 z M 70.875 53.3125 C 93.330148 53.3125 111.53125 71.513602 111.53125 93.96875 C 111.53125 116.4239 93.330148 134.625 70.875 134.625 C 48.419852 134.625 30.21875 116.4239 30.21875 93.96875 C 30.21875 71.513602 48.419852 53.3125 70.875 53.3125 z "
       transform="matrix(0.28222223,0,0,0.28222223,0,257)"
       id="rect3041" />
    <g
       transform="matrix(0.06857231,0,0,0.06857231,2.9659114,252.96613)"
       id="g13" />
    <g
       transform="matrix(0.06857231,0,0,0.06857231,2.9659114,252.96613)"
       id="g15" />
    <g
       transform="matrix(0.06857231,0,0,0.06857231,2.9659114,252.96613)"
       id="g17" />
    <g
       transform="matrix(0.06857231,0,0,0.06857231,2.9659114,252.96613)"
       id="g19" />
    <g
       transform="matrix(0.06857231,0,0,0.06857231,2.9659114,252.96613)"
       id="g21" />
    <g
       transform="matrix(0.06857231,0,0,0.06857231,2.9659114,252.96613)"
       id="g23" />
    <g
       transform="matrix(0.06857231,0,0,0.06857231,2.9659114,252.96613)"
       id="g25" />
    <g
       transform="matrix(0.06857231,0,0,0.06857231,2.9659114,252.96613)"
       id="g27" />
    <g
       transform="matrix(0.06857231,0,0,0.06857231,2.9659114,252.96613)"
       id="g29" />
    <g
       transform="matrix(0.06857231,0,0,0.06857231,2.9659114,252.96613)"
       id="g31" />
    <g
       transform="matrix(0.06857231,0,0,0.06857231,2.9659114,252.96613)"
       id="g33" />
    <g
       transform="matrix(0.06857231,0,0,0.06857231,2.9659114,252.96613)"
       id="g35" />
    <g
       transform="matrix(0.06857231,0,0,0.06857231,2.9659114,252.96613)"
       id="g37" />
    <g
       transform="matrix(0.06857231,0,0,0.06857231,2.9659114,252.96613)"
       id="g39" />
    <g
       transform="matrix(0.06857231,0,0,0.06857231,2.9659114,252.96613)"
       id="g41" />
    <path
       style="fill:#000000;fill-opacity:1;fill-rule:nonzero;stroke:none"
       d="m 32.827174,257.07124 0.45971,-0.001 c 1.451108,-0.005 3.080012,0.50132 3.279062,1.04286 l 3.281666,8.92846 c 0.556807,1.51492 -1.960249,1.96501 -2.860083,1.97272 l -1.11433,0.009 c -1.45099,0.012 -3.851538,-0.82538 -4.036825,-1.71806 l -1.899647,-9.15217 c -0.185297,-0.8927 1.439334,-1.07788 2.890442,-1.08212 z"
       id="rect3850"
       inkscape:connector-curvature="0"
       sodipodi:nodetypes="sssssssss" />
    <path
       sodipodi:nodetypes="sssssssss"
       inkscape:connector-curvature="0"
       id="path3855"
       d="m 7.2045698,257.04451 -0.4617522,-0.001 c -1.4575969,-0.005 -3.0937845,0.50357 -3.2937347,1.04754 l -3.29633887,8.96839 c -0.55929517,1.52171 1.96901397,1.97381 2.87288477,1.98155 l 1.1193033,0.009 c 1.4574758,0.012 3.8687544,-0.82909 4.0548851,-1.72574 l 1.9081288,-9.19302 c 0.186122,-0.89666 -1.4457572,-1.08269 -2.9033652,-1.08695 z"
       style="fill:#000000;fill-opacity:1;fill-rule:nonzero;stroke:none" />
    <path
       style="fill:#000000;fill-opacity:1;fill-rule:nonzero;stroke:none"
       d="m 14.826614,257.05319 c -1.4474,0.10676 -2.527288,0.61929 -2.617854,1.17438 l -1.492969,9.15177 c -0.158815,0.9735 2.045695,1.67308 3.063726,1.64952 l 1.262929,-0.0293 c 1.456603,-0.0335 3.701522,-0.63789 3.711952,-1.9707 l 0.07083,-9.04517 c 0.0035,-0.43926 -1.767509,-0.89936 -2.484067,-0.94103 -0.71657,-0.0417 -1.120055,-0.0185 -1.514541,0.009 z"
       id="path3857"
       inkscape:connector-curvature="0"
       sodipodi:nodetypes="csssssszc" />
    <path
       sodipodi:nodetypes="csssssszc"
       inkscape:connector-curvature="0"
       id="path3859"
       d="m 25.116115,257.0666 c 1.444146,0.10664 2.521601,0.6179 2.611978,1.17174 l 1.489608,9.1312 c 0.158456,0.97134 -2.041093,1.66933 -3.056836,1.64582 l -1.260091,-0.0293 c -1.45335,-0.0335 -3.693211,-0.63644 -3.70362,-1.96628 l -0.07069,-9.02483 c -0.0035,-0.4383 1.763539,-0.89735 2.478488,-0.93894 0.714959,-0.0415 1.117538,-0.0184 1.511139,0.009 z"
       style="fill:#000000;fill-opacity:1;fill-rule:nonzero;stroke:none" />
    <g
       id="g3028"
       transform="translate(-0.24478393,0)">
      <circle
         transform="matrix(0.08758622,0,0,0.08758622,8.9114041,274.31928)"
         d="m 189.375,60 c 0,33.137085 -26.86292,60 -60,60 -33.137085,0 -60,-26.862915 -60,-60 0,-33.137085 26.862915,-60 60,-60 33.13708,0 60,26.862915 60,60 z"
         sodipodi:ry="60"
         sodipodi:rx="60"
         sodipodi:cy="60"
         sodipodi:cx="129.375"
         cx="129.375"
         cy="60"
         r="60"
         id="circle5" />
      <path
         inkscape:connector-curvature="0"
         d="m 20.242872,285.28956 c -5.260516,0 -9.525002,4.58359 -9.525002,10.23772 h 19.050005 c 0,-5.65413 -4.264486,-10.23772 -9.525003,-10.23772 z"
         id="path7" />
    </g>
  </g>
</svg>
