<?xml version="1.0" encoding="UTF-8" standalone="no"?>
<!-- Generator: Adobe Illustrator 16.0.0, SVG Export Plug-In . SVG Version: 6.00 Build 0)  -->

<svg
   xmlns:dc="http://purl.org/dc/elements/1.1/"
   xmlns:cc="http://creativecommons.org/ns#"
   xmlns:rdf="http://www.w3.org/1999/02/22-rdf-syntax-ns#"
   xmlns:svg="http://www.w3.org/2000/svg"
   xmlns="http://www.w3.org/2000/svg"
   xmlns:sodipodi="http://sodipodi.sourceforge.net/DTD/sodipodi-0.dtd"
   xmlns:inkscape="http://www.inkscape.org/namespaces/inkscape"
   version="1.1"
   id="Capa_1"
   x="0px"
   y="0px"
   width="22"
   height="22"
   viewBox="0 0 22.000001 22"
   xml:space="preserve"
   inkscape:version="0.48.4 r9939"
   sodipodi:docname="remove_from_basket.svg"><metadata
   id="metadata45"><rdf:RDF><cc:Work
       rdf:about=""><dc:format>image/svg+xml</dc:format><dc:type
         rdf:resource="http://purl.org/dc/dcmitype/StillImage" /><dc:title /></cc:Work></rdf:RDF></metadata><defs
   id="defs43">
		
		
	</defs><sodipodi:namedview
   pagecolor="#ffffff"
   bordercolor="#666666"
   borderopacity="1"
   objecttolerance="10"
   gridtolerance="10"
   guidetolerance="10"
   inkscape:pageopacity="0"
   inkscape:pageshadow="2"
   inkscape:window-width="1920"
   inkscape:window-height="1027"
   id="namedview41"
   showgrid="false"
   inkscape:zoom="15.999999"
   inkscape:cx="27.221557"
   inkscape:cy="14.514718"
   inkscape:window-x="1272"
   inkscape:window-y="284"
   inkscape:window-maximized="1"
   inkscape:current-layer="g3" />
<g
   id="g3"
   transform="translate(0,-24.96)">
	<path
   inkscape:connector-curvature="0"
   id="path7"
   d="m 20.787684,30.558021 h -2.890167 v -2.358003 c 0,-1.518334 -1.19632,-2.759585 -2.713716,-2.759585 H 7.7437796 c -1.5178648,0 -2.7595829,1.242188 -2.7595829,2.759585 v 2.358003 H 2.1150888 c -0.6618127,0 -1.21223285,0.537781 -1.21223285,1.199595 v 2.604662 c 0,0.661815 0.55042015,1.214105 1.21223285,1.214105 h 0.3571174 l 0.5962873,3.268348 c 0.1680269,-0.02059 0.3393314,-0.03557 0.5129758,-0.03557 2.3172826,0 4.2030303,1.885747 4.2030303,4.203031 0,0.247127 -0.022475,0.492381 -0.063185,0.726404 H 17.967727 c 0.578503,0 1.075095,-0.408134 1.179001,-0.977275 l 1.309587,-7.185405 h 0.33231 c 0.661346,0 1.191171,-0.552758 1.191171,-1.214106 v -2.604659 c -9.38e-4,-0.660878 -0.530763,-1.199128 -1.192109,-1.199128 z M 7.2261232,28.200018 c 0,-0.289719 0.2279379,-0.518593 0.5176564,-0.518593 h 7.4400214 c 0.288781,0 0.505486,0.228874 0.505486,0.518593 v 2.358003 H 7.2261232 v -2.358003 z m 1.639089,11.25317 c 0,0.460555 -0.3589889,0.833585 -0.8190762,0.833585 -0.4605546,0 -0.8200128,-0.373031 -0.8200128,-0.833585 v -4.575594 c 0,-0.460555 0.3594582,-0.833585 0.8200128,-0.833585 0.4600873,0 0.8190762,0.37303 0.8190762,0.833585 v 4.575594 z m 3.4457368,0 c 0,0.460555 -0.375839,0.833585 -0.835927,0.833585 -0.460086,0 -0.836861,-0.373031 -0.836861,-0.833585 v -4.575594 c 0,-0.460555 0.376775,-0.833585 0.836861,-0.833585 0.460088,0 0.835927,0.37303 0.835927,0.833585 v 4.575594 z m 3.412505,0 c 0,0.460555 -0.376307,0.833585 -0.836393,0.833585 -0.459619,0 -0.836395,-0.373031 -0.836395,-0.833585 v -4.575594 c 0,-0.460555 0.376776,-0.833585 0.836395,-0.833585 0.460086,0 0.836393,0.37303 0.836393,0.833585 v 4.575594 z"
   style="fill:#ffffff" /><path
   d="M 3.583459,39.432711 C 1.6045702,39.432711 0,41.023123 0,43.001543 c 0,1.978887 1.6050386,3.583458 3.583459,3.583458 1.9779512,0 3.5834581,-1.605039 3.5834581,-3.583458 0,-1.97842 -1.6059743,-3.568832 -3.5834581,-3.568832 z m -1.6235265,3.071536 0.2486475,0 0.9068346,0 0.8922078,0 0.6874386,0 0.4680454,0 c 0.2485302,0 0.4534158,0.204886 0.4534158,0.453418 0,0.24853 -0.2048856,0.453416 -0.4534158,0.453416 l -1.0677256,0 -0.087757,0 -0.8922078,0 -0.3071525,0 -0.8483286,0 c -0.2485321,0 -0.4534188,-0.204886 -0.4534188,-0.453416 0,-0.248532 0.2048867,-0.453418 0.4534188,-0.453418 z"
   id="path9"
   inkscape:connector-curvature="0"
   style="fill:#ffffff" />
</g>
<g
   id="g11"
   transform="translate(0,-24.96)">
</g>
<g
   id="g13"
   transform="translate(0,-24.96)">
</g>
<g
   id="g15"
   transform="translate(0,-24.96)">
</g>
<g
   id="g17"
   transform="translate(0,-24.96)">
</g>
<g
   id="g19"
   transform="translate(0,-24.96)">
</g>
<g
   id="g21"
   transform="translate(0,-24.96)">
</g>
<g
   id="g23"
   transform="translate(0,-24.96)">
</g>
<g
   id="g25"
   transform="translate(0,-24.96)">
</g>
<g
   id="g27"
   transform="translate(0,-24.96)">
</g>
<g
   id="g29"
   transform="translate(0,-24.96)">
</g>
<g
   id="g31"
   transform="translate(0,-24.96)">
</g>
<g
   id="g33"
   transform="translate(0,-24.96)">
</g>
<g
   id="g35"
   transform="translate(0,-24.96)">
</g>
<g
   id="g37"
   transform="translate(0,-24.96)">
</g>
<g
   id="g39"
   transform="translate(0,-24.96)">
</g>
</svg>