<?xml version="1.0" encoding="UTF-8" standalone="no"?>
<!-- Created with Inkscape (http://www.inkscape.org/) -->

<svg
   xmlns:dc="http://purl.org/dc/elements/1.1/"
   xmlns:cc="http://creativecommons.org/ns#"
   xmlns:rdf="http://www.w3.org/1999/02/22-rdf-syntax-ns#"
   xmlns:svg="http://www.w3.org/2000/svg"
   xmlns="http://www.w3.org/2000/svg"
   xmlns:sodipodi="http://sodipodi.sourceforge.net/DTD/sodipodi-0.dtd"
   xmlns:inkscape="http://www.inkscape.org/namespaces/inkscape"
   width="141.73228"
   height="141.73228"
   viewBox="0 0 40.000001 40.000001"
   version="1.1"
   id="svg8"
   sodipodi:docname="store_icon.svg"
   inkscape:version="0.48.4 r9939">
  <defs
     id="defs2">
    <style
       id="style3848">.cls-1{fill:#919ea8;}.cls-2{fill:#fff;}.cls-3{fill:none;stroke:#3d344c;stroke-linecap:round;stroke-linejoin:round;stroke-width:2px;}</style>
  </defs>
  <sodipodi:namedview
     id="base"
     pagecolor="#ffffff"
     bordercolor="#666666"
     borderopacity="1.0"
     inkscape:pageopacity="0.0"
     inkscape:pageshadow="2"
     inkscape:zoom="2.8"
     inkscape:cx="30.168985"
     inkscape:cy="53.327864"
     inkscape:document-units="mm"
     inkscape:current-layer="layer1"
     showgrid="false"
     inkscape:window-width="1920"
     inkscape:window-height="1027"
     inkscape:window-x="1272"
     inkscape:window-y="284"
     inkscape:window-maximized="1"
     units="mm" />
  <metadata
     id="metadata5">
    <rdf:RDF>
      <cc:Work
         rdf:about="">
        <dc:format>image/svg+xml</dc:format>
        <dc:type
           rdf:resource="http://purl.org/dc/dcmitype/StillImage" />
        <dc:title></dc:title>
      </cc:Work>
    </rdf:RDF>
  </metadata>
  <g
     inkscape:label="Layer 1"
     inkscape:groupmode="layer"
     id="layer1"
     transform="translate(0,-257)">
    <g
       transform="matrix(0.06857231,0,0,0.06857231,2.9659114,252.96613)"
       id="g13" />
    <g
       transform="matrix(0.06857231,0,0,0.06857231,2.9659114,252.96613)"
       id="g15" />
    <g
       transform="matrix(0.06857231,0,0,0.06857231,2.9659114,252.96613)"
       id="g17" />
    <g
       transform="matrix(0.06857231,0,0,0.06857231,2.9659114,252.96613)"
       id="g19" />
    <g
       transform="matrix(0.06857231,0,0,0.06857231,2.9659114,252.96613)"
       id="g21" />
    <g
       transform="matrix(0.06857231,0,0,0.06857231,2.9659114,252.96613)"
       id="g23" />
    <g
       transform="matrix(0.06857231,0,0,0.06857231,2.9659114,252.96613)"
       id="g25" />
    <g
       transform="matrix(0.06857231,0,0,0.06857231,2.9659114,252.96613)"
       id="g27" />
    <g
       transform="matrix(0.06857231,0,0,0.06857231,2.9659114,252.96613)"
       id="g29" />
    <g
       transform="matrix(0.06857231,0,0,0.06857231,2.9659114,252.96613)"
       id="g31" />
    <g
       transform="matrix(0.06857231,0,0,0.06857231,2.9659114,252.96613)"
       id="g33" />
    <g
       transform="matrix(0.06857231,0,0,0.06857231,2.9659114,252.96613)"
       id="g35" />
    <g
       transform="matrix(0.06857231,0,0,0.06857231,2.9659114,252.96613)"
       id="g37" />
    <g
       transform="matrix(0.06857231,0,0,0.06857231,2.9659114,252.96613)"
       id="g39" />
    <g
       transform="matrix(0.06857231,0,0,0.06857231,2.9659114,252.96613)"
       id="g41" />
    <g
       id="g3020"
       transform="matrix(0.62697591,0,0,0.62697591,8.0824415,103.30503)"
       style="fill:#ffffff">
      <path
         inkscape:connector-curvature="0"
         id="rect3041"
         d="m 2.1138467,277.2124 0,18.14997 c -0.00489,0.0446 0,0.0904 0,0.13626 0,0.68051 0.5461239,1.22665 1.2266559,1.22665 l 31.2115814,0 c 0.680532,0 1.226656,-0.54614 1.226656,-1.22665 0,-0.0461 0.0049,-0.0917 0,-0.13626 l 0,-18.14997 -33.6648933,0 z m 14.3337023,6.86018 4.997488,0 c 0.664335,0 1.20394,0.51691 1.20394,1.18125 l 0,8.90461 c 0,0.66433 -0.539605,1.20393 -1.20394,1.20393 l -4.997488,0 c -0.664335,0 -1.20394,-0.5396 -1.20394,-1.20393 l 0,-8.90461 c 0,-0.66434 0.539605,-1.18125 1.20394,-1.18125 z"
         style="fill:#ffffff;fill-opacity:1;fill-rule:nonzero;stroke:none" />
      <path
         sodipodi:nodetypes="sssssssss"
         inkscape:connector-curvature="0"
         id="rect3850"
         d="m 31.009373,257.42433 0.430114,-0.002 c 1.357687,-0.008 2.881723,0.75621 3.067959,1.57313 l 3.070395,13.46834 c 0.52096,2.28519 -1.83405,2.96416 -2.675954,2.97578 l -1.04259,0.0154 c -1.357576,0.018 -3.603579,-1.24504 -3.776938,-2.59162 l -1.777349,-13.8058 c -0.173368,-1.34661 1.346671,-1.62596 2.704358,-1.63235 z"
         style="fill:#ffffff;fill-opacity:1;fill-rule:nonzero;stroke:none" />
      <path
         style="fill:#ffffff;fill-opacity:1;fill-rule:nonzero;stroke:none"
         d="m 7.0363296,257.38402 -0.432025,-0.002 c -1.3637581,-0.008 -2.8946093,0.75964 -3.0816869,1.58019 l -3.08412344,13.52856 c -0.52328822,2.29545 1.84225054,2.97746 2.68793094,2.98912 l 1.0472435,0.0155 c 1.3636448,0.018 3.6196873,-1.25064 3.7938351,-2.60322 l 1.7852847,-13.86741 c 0.1741401,-1.3526 -1.3526802,-1.63322 -2.7164486,-1.63963 z"
         id="path3855"
         inkscape:connector-curvature="0"
         sodipodi:nodetypes="sssssssss" />
      <path
         sodipodi:nodetypes="csssssszc"
         inkscape:connector-curvature="0"
         id="path3857"
         d="m 14.167673,257.39711 c -1.354217,0.16098 -2.364583,0.93419 -2.449319,1.77151 l -1.396853,13.80518 c -0.14859,1.46853 1.913995,2.52381 2.866486,2.48826 l 1.181623,-0.0443 c 1.362828,-0.0507 3.463221,-0.96224 3.47298,-2.97274 l 0.06627,-13.64439 c 0.0033,-0.66261 -1.653718,-1.35667 -2.324145,-1.41952 -0.670438,-0.0628 -1.047947,-0.0278 -1.417036,0.0155 z"
         style="fill:#ffffff;fill-opacity:1;fill-rule:nonzero;stroke:none" />
      <path
         style="fill:#ffffff;fill-opacity:1;fill-rule:nonzero;stroke:none"
         d="m 23.794745,257.41735 c 1.351173,0.16072 2.359262,0.93208 2.443821,1.76752 l 1.393708,13.77417 c 0.148255,1.46524 -1.909689,2.51814 -2.860039,2.48267 l -1.178968,-0.0443 c -1.359784,-0.0507 -3.455445,-0.96005 -3.465184,-2.96607 l -0.06614,-13.61371 c -0.0033,-0.66114 1.650004,-1.35363 2.318925,-1.41635 0.668931,-0.0626 1.045592,-0.0278 1.413854,0.0154 z"
         id="path3859"
         inkscape:connector-curvature="0"
         sodipodi:nodetypes="csssssszc" />
    </g>
  </g>
</svg>
