<?xml version="1.0" encoding="UTF-8" standalone="no"?>
<svg
   xmlns:dc="http://purl.org/dc/elements/1.1/"
   xmlns:cc="http://creativecommons.org/ns#"
   xmlns:rdf="http://www.w3.org/1999/02/22-rdf-syntax-ns#"
   xmlns:svg="http://www.w3.org/2000/svg"
   xmlns="http://www.w3.org/2000/svg"
   xmlns:sodipodi="http://sodipodi.sourceforge.net/DTD/sodipodi-0.dtd"
   xmlns:inkscape="http://www.inkscape.org/namespaces/inkscape"
   inkscape:version="1.0 (4035a4fb49, 2020-05-01)"
   sodipodi:docname="marker_services.svg"
   id="svg8"
   version="1.1"
   viewBox="0 0 40.000001 40.000001"
   height="141.73228"
   width="141.73228">
  <defs
     id="defs2">
    <style
       id="style3848">.cls-1{fill:#919ea8;}.cls-2{fill:#fff;}.cls-3{fill:none;stroke:#3d344c;stroke-linecap:round;stroke-linejoin:round;stroke-width:2px;}</style>
  </defs>
  <sodipodi:namedview
     inkscape:document-rotation="0"
     units="mm"
     inkscape:window-maximized="1"
     inkscape:window-y="284"
     inkscape:window-x="1272"
     inkscape:window-height="1027"
     inkscape:window-width="1920"
     showgrid="false"
     inkscape:current-layer="layer1"
     inkscape:document-units="mm"
     inkscape:cy="132.38642"
     inkscape:cx="-125.20765"
     inkscape:zoom="3.959798"
     inkscape:pageshadow="2"
     inkscape:pageopacity="0.0"
     borderopacity="1.0"
     bordercolor="#666666"
     pagecolor="#ffffff"
     id="base" />
  <metadata
     id="metadata5">
    <rdf:RDF>
      <cc:Work
         rdf:about="">
        <dc:format>image/svg+xml</dc:format>
        <dc:type
           rdf:resource="http://purl.org/dc/dcmitype/StillImage" />
        <dc:title />
      </cc:Work>
    </rdf:RDF>
  </metadata>
  <g
     transform="translate(0,-257)"
     id="layer1"
     inkscape:groupmode="layer"
     inkscape:label="Layer 1">
    <path
       sodipodi:nodetypes="czzzc"
       inkscape:connector-curvature="0"
       id="path4747"
       d="m 19.775357,297 c 0,0 -14.489505,-13.57587 -14.489505,-24.58716 0,-11.01129 8.012286,-15.41284 14.489505,-15.41284 6.477221,0 14.938792,4.16141 14.938792,15.41284 C 34.714149,283.66427 19.775357,297 19.775357,297 z"
       style="fill:#00aad4;fill-opacity:1;stroke:none" />
    <ellipse
       transform="matrix(0.66592917,0,0,0.66592917,-26.793971,159.01813)"
       d="m 85.273261,169.42744 c 0,8.26634 -6.717774,14.96753 -15.004569,14.96753 -8.286795,0 -15.004569,-6.70119 -15.004569,-14.96753 0,-8.26633 6.717774,-14.96752 15.004569,-14.96752 8.286795,0 15.004569,6.70119 15.004569,14.96752 z"
       sodipodi:ry="14.967523"
       sodipodi:rx="15.004569"
       sodipodi:cy="169.42744"
       sodipodi:cx="70.268692"
       ry="14.967523"
       rx="15.004569"
       cy="169.42744"
       cx="70.268692"
       id="ellipse4749"
       style="fill:#ffffff;fill-opacity:1;stroke:#ffffff;stroke-width:2.84251475;stroke-miterlimit:4;stroke-opacity:1;stroke-dasharray:none" />
    <g
       id="g13"
       transform="matrix(0.06857231,0,0,0.06857231,2.9659114,252.96613)" />
    <g
       id="g15"
       transform="matrix(0.06857231,0,0,0.06857231,2.9659114,252.96613)" />
    <g
       id="g17"
       transform="matrix(0.06857231,0,0,0.06857231,2.9659114,252.96613)" />
    <g
       id="g19"
       transform="matrix(0.06857231,0,0,0.06857231,2.9659114,252.96613)" />
    <g
       id="g21"
       transform="matrix(0.06857231,0,0,0.06857231,2.9659114,252.96613)" />
    <g
       id="g23"
       transform="matrix(0.06857231,0,0,0.06857231,2.9659114,252.96613)" />
    <g
       id="g25"
       transform="matrix(0.06857231,0,0,0.06857231,2.9659114,252.96613)" />
    <g
       id="g27"
       transform="matrix(0.06857231,0,0,0.06857231,2.9659114,252.96613)" />
    <g
       id="g29"
       transform="matrix(0.06857231,0,0,0.06857231,2.9659114,252.96613)" />
    <g
       id="g31"
       transform="matrix(0.06857231,0,0,0.06857231,2.9659114,252.96613)" />
    <g
       id="g33"
       transform="matrix(0.06857231,0,0,0.06857231,2.9659114,252.96613)" />
    <g
       id="g35"
       transform="matrix(0.06857231,0,0,0.06857231,2.9659114,252.96613)" />
    <g
       id="g37"
       transform="matrix(0.06857231,0,0,0.06857231,2.9659114,252.96613)" />
    <g
       id="g39"
       transform="matrix(0.06857231,0,0,0.06857231,2.9659114,252.96613)" />
    <g
       id="g41"
       transform="matrix(0.06857231,0,0,0.06857231,2.9659114,252.96613)" />
    <g
       style="fill:#5596ab;fill-opacity:1"
       id="g7"
       transform="matrix(0.03307661,0,0,0.03307661,12.551,263.32417)">
      <path
         inkscape:connector-curvature="0"
         id="path9"
         d="m 138.29,168.019 h 258.806 v -16.178 c 0,-13.352 -10.936,-24.267 -24.267,-24.267 H 266.011 v -14.129 c 0,-20.104 -16.351,-36.39 -36.39,-36.39 h -62.124 c -9.707,0 -18.831,3.796 -25.734,10.699 -6.903,6.903 -10.678,15.962 -10.678,25.691 v 14.15 H 24.267 C 10.915,127.574 0,138.488 0,151.841 V 368.563 L 81.581,203.288 c 9.901,-20.127 34.319,-35.269 56.709,-35.269 z m 17.063,-54.574 c 0,-3.214 1.316,-6.256 3.581,-8.542 2.265,-2.33 5.328,-3.602 8.542,-3.602 H 229.6 c 6.709,0 12.123,5.436 12.123,12.144 v 14.15 h -86.369 v -14.15 z"
         style="fill:#5596ab;fill-opacity:1" />
      <path
         inkscape:connector-curvature="0"
         id="path11"
         d="M 486.874,192.243 H 138.29 c -13.331,0 -29.099,9.793 -34.945,21.743 L 9.599,403.895 c -5.91,11.929 0.194,21.722 13.525,21.722 h 348.584 c 13.331,0 29.121,-9.772 34.988,-21.722 l 93.725,-189.909 c 5.888,-11.95 -0.173,-21.743 -13.547,-21.743 z"
         style="fill:#5596ab;fill-opacity:1" />
    </g>
    <path
       style="fill:#006a85;stroke-width:1.09932;fill-opacity:1"
       d="M 28.683178,269.6801 H 17.153202 c -0.440943,0 -0.962496,0.32392 -1.155862,0.71919 l -3.1008,6.28154 c -0.195482,0.39458 0.0065,0.71849 0.447361,0.71849 h 11.529977 c 0.440943,0 0.963224,-0.32321 1.157284,-0.71849 l 3.100106,-6.28154 c 0.194755,-0.39527 -0.0057,-0.71919 -0.44809,-0.71919 z"
       inkscape:connector-curvature="0"
       id="path3085" />
  </g>
</svg>
