<?xml version="1.0" encoding="UTF-8" standalone="no"?>
<!-- Created with Inkscape (http://www.inkscape.org/) -->

<svg
   xmlns:dc="http://purl.org/dc/elements/1.1/"
   xmlns:cc="http://creativecommons.org/ns#"
   xmlns:rdf="http://www.w3.org/1999/02/22-rdf-syntax-ns#"
   xmlns:svg="http://www.w3.org/2000/svg"
   xmlns="http://www.w3.org/2000/svg"
   xmlns:sodipodi="http://sodipodi.sourceforge.net/DTD/sodipodi-0.dtd"
   xmlns:inkscape="http://www.inkscape.org/namespaces/inkscape"
   width="141.73228"
   height="141.73228"
   viewBox="0 0 40.000001 40.000001"
   version="1.1"
   id="svg8"
   sodipodi:docname="marker_services.svg"
   inkscape:version="0.48.4 r9939">
  <defs
     id="defs2">
    <style
       id="style3848">.cls-1{fill:#919ea8;}.cls-2{fill:#fff;}.cls-3{fill:none;stroke:#3d344c;stroke-linecap:round;stroke-linejoin:round;stroke-width:2px;}</style>
  </defs>
  <sodipodi:namedview
     id="base"
     pagecolor="#ffffff"
     bordercolor="#666666"
     borderopacity="1.0"
     inkscape:pageopacity="0.0"
     inkscape:pageshadow="2"
     inkscape:zoom="1.979899"
     inkscape:cx="-113.73007"
     inkscape:cy="75.243255"
     inkscape:document-units="mm"
     inkscape:current-layer="layer1"
     showgrid="false"
     inkscape:window-width="1920"
     inkscape:window-height="1027"
     inkscape:window-x="1272"
     inkscape:window-y="284"
     inkscape:window-maximized="1"
     units="mm" />
  <metadata
     id="metadata5">
    <rdf:RDF>
      <cc:Work
         rdf:about="">
        <dc:format>image/svg+xml</dc:format>
        <dc:type
           rdf:resource="http://purl.org/dc/dcmitype/StillImage" />
        <dc:title></dc:title>
      </cc:Work>
    </rdf:RDF>
  </metadata>
  <g
     inkscape:label="Layer 1"
     inkscape:groupmode="layer"
     id="layer1"
     transform="translate(0,-257)">
    <g
       transform="matrix(0.06857231,0,0,0.06857231,2.9659114,252.96613)"
       id="g13" />
    <g
       transform="matrix(0.06857231,0,0,0.06857231,2.9659114,252.96613)"
       id="g15" />
    <g
       transform="matrix(0.06857231,0,0,0.06857231,2.9659114,252.96613)"
       id="g17" />
    <g
       transform="matrix(0.06857231,0,0,0.06857231,2.9659114,252.96613)"
       id="g19" />
    <g
       transform="matrix(0.06857231,0,0,0.06857231,2.9659114,252.96613)"
       id="g21" />
    <g
       transform="matrix(0.06857231,0,0,0.06857231,2.9659114,252.96613)"
       id="g23" />
    <g
       transform="matrix(0.06857231,0,0,0.06857231,2.9659114,252.96613)"
       id="g25" />
    <g
       transform="matrix(0.06857231,0,0,0.06857231,2.9659114,252.96613)"
       id="g27" />
    <g
       transform="matrix(0.06857231,0,0,0.06857231,2.9659114,252.96613)"
       id="g29" />
    <g
       transform="matrix(0.06857231,0,0,0.06857231,2.9659114,252.96613)"
       id="g31" />
    <g
       transform="matrix(0.06857231,0,0,0.06857231,2.9659114,252.96613)"
       id="g33" />
    <g
       transform="matrix(0.06857231,0,0,0.06857231,2.9659114,252.96613)"
       id="g35" />
    <g
       transform="matrix(0.06857231,0,0,0.06857231,2.9659114,252.96613)"
       id="g37" />
    <g
       transform="matrix(0.06857231,0,0,0.06857231,2.9659114,252.96613)"
       id="g39" />
    <g
       transform="matrix(0.06857231,0,0,0.06857231,2.9659114,252.96613)"
       id="g41" />
    <g
       transform="matrix(0.35925177,0,0,0.35925177,-169.26522,102.51082)"
       id="g4448">
      <path
         style="fill:#00aad4;fill-opacity:1;stroke:none"
         d="m 526.20638,541.37293 c 0,0 -40.33245,-37.78929 -40.33245,-68.43992 0,-30.65062 22.30271,-42.90261 40.33245,-42.90261 18.02975,0 41.58308,11.58355 41.58308,42.90261 0,31.31907 -41.58308,68.43992 -41.58308,68.43992 z"
         id="path4172"
         inkscape:connector-curvature="0"
         sodipodi:nodetypes="czzzc" />
      <path
         inkscape:connector-curvature="0"
         id="path4216"
         d="m 523.84101,450.02667 c -0.60278,0 -1.15192,0.34575 -1.39533,0.897 l -1.82721,4.18599 -5.94676,3.4551 -4.55143,-0.49833 c -0.59957,-0.0653 -1.19365,0.20878 -1.495,0.73088 l -3.02321,5.28232 c -0.30139,0.52227 -0.2566,1.17475 0.0996,1.66111 l 2.69099,3.68765 0,6.84375 -2.69099,3.68766 c -0.35623,0.48635 -0.40102,1.13892 -0.0996,1.66111 l 3.02321,5.28231 c 0.30127,0.52211 0.89515,0.79627 1.495,0.73089 l 4.55143,-0.46511 5.94676,3.42188 1.82721,4.18599 c 0.24341,0.55134 0.79255,0.89699 1.39533,0.89699 l 6.11288,0 c 0.60278,0 1.1187,-0.34574 1.36211,-0.89699 l 1.86043,-4.18599 5.94676,-3.42188 4.55143,0.46511 c 0.60003,0.0654 1.16043,-0.20878 1.46178,-0.73089 l 3.05643,-5.28231 c 0.30139,-0.52228 0.2566,-1.17484 -0.0996,-1.66111 l -2.69099,-3.68766 0,-6.84375 2.69099,-3.68765 c 0.35623,-0.48635 0.40102,-1.13892 0.0996,-1.66111 l -3.05643,-5.28232 c -0.30135,-0.52218 -0.8622,-0.79616 -1.46178,-0.73088 l -4.55143,0.49833 -5.94676,-3.4551 -1.86043,-4.18599 c -0.24341,-0.55134 -0.75933,-0.897 -1.36211,-0.897 l -6.11288,0 z m 3.05644,9.20253 c 7.5273,0 13.62107,6.09377 13.62107,13.62107 0,7.52729 -6.09377,13.62106 -13.62107,13.62106 -7.5273,0 -13.62107,-6.09377 -13.62107,-13.62106 0,-7.5273 6.09377,-13.62107 13.62107,-13.62107 z"
         style="fill:#ffffff" />
      <path
         style="fill:#ffffff"
         d="m 530.29259,480.96729 h -6.59365 c -0.84029,0 -1.52163,-0.68124 -1.52163,-1.52162 v -3.219 c 0,-2.57074 1.98329,-4.749 4.55018,-4.88889 2.77803,-0.15139 5.08664,2.06531 5.08664,4.81115 v 3.29681 c 9e-5,0.84031 -0.68125,1.52155 -1.52154,1.52155 z"
         id="path4220"
         inkscape:connector-curvature="0" />
      <path
         style="fill:#f9f9f9"
         d="m 526.94503,474.37373 c -2.65685,0 -4.81835,-2.16159 -4.81835,-4.81836 0,-2.65676 2.16159,-4.81836 4.81835,-4.81836 2.65678,0 4.81837,2.1616 4.81837,4.81836 0,2.65677 -2.16151,4.81836 -4.81837,4.81836 z"
         id="path4222"
         inkscape:connector-curvature="0" />
    </g>
  </g>
</svg>
