<?xml version="1.0" encoding="UTF-8" standalone="no"?>
<!-- Created with Inkscape (http://www.inkscape.org/) -->

<svg
   xmlns:dc="http://purl.org/dc/elements/1.1/"
   xmlns:cc="http://creativecommons.org/ns#"
   xmlns:rdf="http://www.w3.org/1999/02/22-rdf-syntax-ns#"
   xmlns:svg="http://www.w3.org/2000/svg"
   xmlns="http://www.w3.org/2000/svg"
   xmlns:sodipodi="http://sodipodi.sourceforge.net/DTD/sodipodi-0.dtd"
   xmlns:inkscape="http://www.inkscape.org/namespaces/inkscape"
   width="141.73228"
   height="141.73228"
   viewBox="0 0 40.000001 40.000001"
   version="1.1"
   id="svg8"
   sodipodi:docname="marker_pharmacy.svg"
   inkscape:version="0.48.4 r9939">
  <defs
     id="defs2">
    <style
       id="style3848">.cls-1{fill:#919ea8;}.cls-2{fill:#fff;}.cls-3{fill:none;stroke:#3d344c;stroke-linecap:round;stroke-linejoin:round;stroke-width:2px;}</style>
  </defs>
  <sodipodi:namedview
     id="base"
     pagecolor="#ffffff"
     bordercolor="#666666"
     borderopacity="1.0"
     inkscape:pageopacity="0.0"
     inkscape:pageshadow="2"
     inkscape:zoom="1.979899"
     inkscape:cx="-38.570789"
     inkscape:cy="56.519413"
     inkscape:document-units="mm"
     inkscape:current-layer="layer1"
     showgrid="false"
     inkscape:window-width="1920"
     inkscape:window-height="1027"
     inkscape:window-x="1272"
     inkscape:window-y="284"
     inkscape:window-maximized="1"
     units="mm" />
  <metadata
     id="metadata5">
    <rdf:RDF>
      <cc:Work
         rdf:about="">
        <dc:format>image/svg+xml</dc:format>
        <dc:type
           rdf:resource="http://purl.org/dc/dcmitype/StillImage" />
        <dc:title></dc:title>
      </cc:Work>
    </rdf:RDF>
  </metadata>
  <g
     inkscape:label="Layer 1"
     inkscape:groupmode="layer"
     id="layer1"
     transform="translate(0,-257)">
    <g
       transform="matrix(0.35925177,0,0,0.35925177,-129.02045,102.51082)"
       id="g4407">
      <path
         style="fill:#808080;fill-opacity:1;stroke:none"
         d="m 413.98016,541.37293 c 0,0 -40.33245,-37.78929 -40.33245,-68.43992 0,-30.65062 22.30271,-42.90261 40.33245,-42.90261 18.02976,0 41.58308,11.58355 41.58308,42.90261 0,31.31907 -41.58308,68.43992 -41.58308,68.43992 z"
         id="path4122"
         inkscape:connector-curvature="0"
         sodipodi:nodetypes="czzzc" />
      <g
         style="fill:#ffffff"
         id="g4156"
         transform="matrix(2.7835632,0,0,2.7835632,357.53705,-285.64234)">
        <path
           id="path4158"
           transform="matrix(0.28222223,0,0,0.28222223,0,257)"
           d="m 49.40625,53.21875 0,24.96875 c -0.0067,0.06146 0,0.124191 0,0.1875 0,0.936202 0.751298,1.6875 1.6875,1.6875 l 42.9375,0 c 0.936202,0 1.6875,-0.751298 1.6875,-1.6875 0,-0.06331 0.0067,-0.126037 0,-0.1875 l 0,-24.96875 -46.3125,0 z M 72.5625,56.5625 c 5.49703,0 9.96875,4.440484 9.96875,9.9375 0,5.497051 -4.47172,9.96875 -9.96875,9.96875 -5.497026,0 -9.9375,-4.471699 -9.9375,-9.96875 0,-5.497016 4.440474,-9.9375 9.9375,-9.9375 z"
           style="fill:#ffffff;fill-opacity:1;fill-rule:nonzero;stroke:none"
           inkscape:connector-curvature="0" />
        <path
           inkscape:connector-curvature="0"
           id="path4160"
           d="m 20.003182,273.53531 c -0.15391,0 -0.278844,0.12111 -0.278844,0.27502 l 0,1.26053 -1.256707,0 c -0.15391,0 -0.278844,0.12111 -0.278844,0.27502 l 0,0.92821 c 0,0.15391 0.124934,0.27885 0.278844,0.27885 l 1.256707,0 0,1.2567 c 0,0.15391 0.124934,0.27884 0.278844,0.27884 l 0.924383,0 c 0.153914,0 0.278844,-0.12493 0.278844,-0.27884 l 0,-1.2567 1.256707,0 c 0.153909,0 0.278844,-0.12494 0.278844,-0.27885 l 0,-0.92821 c 0,-0.15391 -0.124935,-0.27502 -0.278844,-0.27502 l -1.256707,0 0,-1.26053 c 0,-0.15391 -0.12493,-0.27502 -0.278844,-0.27502 l -0.924383,0 z"
           style="fill:#ffffff;fill-opacity:1;fill-rule:nonzero;stroke:none" />
        <path
           sodipodi:nodetypes="sssssssss"
           inkscape:connector-curvature="0"
           id="path4162"
           d="m 25.161471,264.33764 0.166992,-8.6e-4 c 0.527123,-0.003 1.118831,0.2936 1.191137,0.61077 l 1.192083,5.22909 c 0.202263,0.88723 -0.712071,1.15084 -1.038941,1.15535 l -0.404786,0.006 c -0.52708,0.007 -1.399092,-0.48339 -1.466399,-1.0062 L 24.1115,264.97174 c -0.06731,-0.52282 0.522846,-0.63128 1.049969,-0.63376 z"
           style="fill:#ffffff;fill-opacity:1;fill-rule:nonzero;stroke:none" />
        <path
           style="fill:#ffffff;fill-opacity:1;fill-rule:nonzero;stroke:none"
           d="m 15.853921,264.32199 -0.167734,-8.7e-4 c -0.52948,-0.003 -1.123834,0.29493 -1.196467,0.61351 l -1.197413,5.25247 c -0.203167,0.89121 0.715255,1.156 1.043591,1.16053 l 0.406593,0.006 c 0.529436,0.007 1.405346,-0.48556 1.472959,-1.0107 l 0.693138,-5.38403 c 0.06761,-0.52515 -0.525179,-0.6341 -1.054663,-0.63659 z"
           id="path4164"
           inkscape:connector-curvature="0"
           sodipodi:nodetypes="sssssssss" />
        <path
           sodipodi:nodetypes="csssssszc"
           inkscape:connector-curvature="0"
           id="path4166"
           d="m 18.62267,264.32707 c -0.525776,0.0625 -0.918051,0.3627 -0.95095,0.68779 l -0.542329,5.35987 c -0.05769,0.57016 0.74311,0.97987 1.112915,0.96607 l 0.458766,-0.0172 c 0.529119,-0.0197 1.344598,-0.37359 1.348387,-1.15417 l 0.02573,-5.29744 c 0.0013,-0.25726 -0.642057,-0.52673 -0.902351,-0.55113 -0.260298,-0.0244 -0.406866,-0.0108 -0.550165,0.006 z"
           style="fill:#ffffff;fill-opacity:1;fill-rule:nonzero;stroke:none" />
        <path
           style="fill:#ffffff;fill-opacity:1;fill-rule:nonzero;stroke:none"
           d="m 22.360387,264.33493 c 0.524594,0.0624 0.915985,0.36188 0.948815,0.68624 l 0.541108,5.34783 c 0.05756,0.56888 -0.741438,0.97767 -1.110412,0.9639 l -0.457735,-0.0172 c -0.527937,-0.0197 -1.341579,-0.37274 -1.34536,-1.15158 l -0.02568,-5.28553 c -0.0013,-0.25669 0.640615,-0.52555 0.900324,-0.5499 0.259713,-0.0243 0.405952,-0.0108 0.54893,0.006 z"
           id="path4168"
           inkscape:connector-curvature="0"
           sodipodi:nodetypes="csssssszc" />
      </g>
    </g>
    <g
       transform="matrix(0.06857231,0,0,0.06857231,2.9659114,252.96613)"
       id="g13" />
    <g
       transform="matrix(0.06857231,0,0,0.06857231,2.9659114,252.96613)"
       id="g15" />
    <g
       transform="matrix(0.06857231,0,0,0.06857231,2.9659114,252.96613)"
       id="g17" />
    <g
       transform="matrix(0.06857231,0,0,0.06857231,2.9659114,252.96613)"
       id="g19" />
    <g
       transform="matrix(0.06857231,0,0,0.06857231,2.9659114,252.96613)"
       id="g21" />
    <g
       transform="matrix(0.06857231,0,0,0.06857231,2.9659114,252.96613)"
       id="g23" />
    <g
       transform="matrix(0.06857231,0,0,0.06857231,2.9659114,252.96613)"
       id="g25" />
    <g
       transform="matrix(0.06857231,0,0,0.06857231,2.9659114,252.96613)"
       id="g27" />
    <g
       transform="matrix(0.06857231,0,0,0.06857231,2.9659114,252.96613)"
       id="g29" />
    <g
       transform="matrix(0.06857231,0,0,0.06857231,2.9659114,252.96613)"
       id="g31" />
    <g
       transform="matrix(0.06857231,0,0,0.06857231,2.9659114,252.96613)"
       id="g33" />
    <g
       transform="matrix(0.06857231,0,0,0.06857231,2.9659114,252.96613)"
       id="g35" />
    <g
       transform="matrix(0.06857231,0,0,0.06857231,2.9659114,252.96613)"
       id="g37" />
    <g
       transform="matrix(0.06857231,0,0,0.06857231,2.9659114,252.96613)"
       id="g39" />
    <g
       transform="matrix(0.06857231,0,0,0.06857231,2.9659114,252.96613)"
       id="g41" />
  </g>
</svg>
