<?xml version="1.0" encoding="UTF-8" standalone="no"?>
<!-- Created with Inkscape (http://www.inkscape.org/) -->

<svg
   xmlns:dc="http://purl.org/dc/elements/1.1/"
   xmlns:cc="http://creativecommons.org/ns#"
   xmlns:rdf="http://www.w3.org/1999/02/22-rdf-syntax-ns#"
   xmlns:svg="http://www.w3.org/2000/svg"
   xmlns="http://www.w3.org/2000/svg"
   xmlns:sodipodi="http://sodipodi.sourceforge.net/DTD/sodipodi-0.dtd"
   xmlns:inkscape="http://www.inkscape.org/namespaces/inkscape"
   width="141.73228"
   height="141.73228"
   viewBox="0 0 40.000001 40.000001"
   version="1.1"
   id="svg8"
   sodipodi:docname="marker_restaurant_food_store.svg"
   inkscape:version="0.48.4 r9939">
  <defs
     id="defs2">
    <style
       id="style3848">.cls-1{fill:#919ea8;}.cls-2{fill:#fff;}.cls-3{fill:none;stroke:#3d344c;stroke-linecap:round;stroke-linejoin:round;stroke-width:2px;}</style>
  </defs>
  <sodipodi:namedview
     id="base"
     pagecolor="#ffffff"
     bordercolor="#666666"
     borderopacity="1.0"
     inkscape:pageopacity="0.0"
     inkscape:pageshadow="2"
     inkscape:zoom="11.2"
     inkscape:cx="68.131694"
     inkscape:cy="88.008632"
     inkscape:document-units="mm"
     inkscape:current-layer="g3"
     showgrid="false"
     inkscape:window-width="1920"
     inkscape:window-height="1027"
     inkscape:window-x="1272"
     inkscape:window-y="284"
     inkscape:window-maximized="1"
     units="mm" />
  <metadata
     id="metadata5">
    <rdf:RDF>
      <cc:Work
         rdf:about="">
        <dc:format>image/svg+xml</dc:format>
        <dc:type
           rdf:resource="http://purl.org/dc/dcmitype/StillImage" />
        <dc:title />
      </cc:Work>
    </rdf:RDF>
  </metadata>
  <g
     inkscape:label="Layer 1"
     inkscape:groupmode="layer"
     id="layer1"
     transform="translate(0,-257)">
    <path
       style="fill:#d45500;fill-opacity:1;stroke:none"
       d="m 19.775357,297 c 0,0 -14.489505,-13.57587 -14.489505,-24.58716 0,-11.01129 8.012286,-15.41284 14.489505,-15.41284 6.477221,0 14.938792,4.16141 14.938792,15.41284 C 34.714149,283.66427 19.775357,297 19.775357,297 z"
       id="path4747"
       inkscape:connector-curvature="0"
       sodipodi:nodetypes="czzzc" />
    <ellipse
       style="fill:#ffffff;fill-opacity:1;stroke:#ffffff;stroke-width:2.84251475;stroke-miterlimit:4;stroke-opacity:1;stroke-dasharray:none"
       id="ellipse4749"
       cx="70.268692"
       cy="169.42744"
       rx="15.004569"
       ry="14.967523"
       sodipodi:cx="70.268692"
       sodipodi:cy="169.42744"
       sodipodi:rx="15.004569"
       sodipodi:ry="14.967523"
       d="m 85.273261,169.42744 c 0,8.26634 -6.717774,14.96753 -15.004569,14.96753 -8.286795,0 -15.004569,-6.70119 -15.004569,-14.96753 0,-8.26633 6.717774,-14.96752 15.004569,-14.96752 8.286795,0 15.004569,6.70119 15.004569,14.96752 z"
       transform="matrix(0.66592917,0,0,0.66592917,-26.793971,159.01813)" />
    <g
       transform="matrix(0.06857231,0,0,0.06857231,2.9659114,253.4701)"
       id="g3">
      <path
         style="font-size:medium;font-style:normal;font-variant:normal;font-weight:normal;font-stretch:normal;text-indent:0;text-align:start;text-decoration:none;line-height:normal;letter-spacing:normal;word-spacing:normal;text-transform:none;direction:ltr;block-progression:tb;writing-mode:lr-tb;text-anchor:start;baseline-shift:baseline;color:#000000;fill:#000000;fill-opacity:1;fill-rule:nonzero;stroke:none;stroke-width:3.92286634;marker:none;visibility:visible;display:inline;overflow:visible;enable-background:accumulate;font-family:Sans;-inkscape-font-specification:Sans"
         d="m 216.625,155.75 c -0.91982,0 -1.81252,0.0843 -2.6875,0.5 -0.87498,0.41571 -1.47238,1.05489 -2.0625,1.78125 -0.39793,0.48981 -0.40242,0.66266 -0.46875,0.875 -0.0663,0.21234 -0.10935,0.43274 -0.15625,0.65625 -0.0938,0.44701 -0.1901,0.97863 -0.28125,1.625 -0.1823,1.29274 -0.35932,3.00649 -0.5625,5.03125 -0.40636,4.04952 -0.84326,9.29265 -1.25,14.5 -0.81348,10.41469 -1.5,20.65625 -1.5,20.65625 l 0,0.0937 0,0.0625 c 0.002,0.30362 -0.15922,0.81786 -0.40625,1.125 -0.24703,0.30714 -0.45818,0.4375 -0.9375,0.4375 l -1.15625,0 c -0.34971,0 -0.5434,-0.12073 -0.84375,-0.5625 -0.30035,-0.44177 -0.5,-1.15628 -0.5,-1.59375 l 0,-0.0312 0,-0.0312 -0.90625,-42.5 -0.0312,-2.25 -2.21875,0.34375 c -3.08416,0.4857 -5.70459,1.45737 -7.6875,3.375 -1.98291,1.91763 -3.17597,4.62419 -3.9375,8.15625 -1.52305,7.06411 -1.46875,17.86751 -1.46875,35.46875 0,12.39481 4.92025,23.41909 14,29.40625 1.23958,0.81919 2.57748,1.53755 3.96875,2.15625 0.90856,0.40231 1.88534,0.66795 2.84375,0.96875 l -3.84375,146.59375 0,0.0312 0,0.0312 c 0,1.46852 0.73904,2.66842 1.625,3.5625 0.88596,0.89408 1.97613,1.58084 3.125,2.15625 2.29774,1.15082 4.79613,1.84375 6.875,1.84375 l 5.09375,0 c 2.07734,0 4.57716,-0.69511 6.875,-1.84375 1.14892,-0.57432 2.20748,-1.26281 3.09375,-2.15625 0.88627,-0.89344 1.65625,-2.09403 1.65625,-3.5625 l 0,-0.0312 -3.84375,-147.3125 c 1.01119,-0.41874 2.04808,-0.80657 2.96875,-1.3125 1.69127,-0.92669 3.25164,-2.04198 4.6875,-3.28125 7.28584,-6.29202 11.21875,-16.2093 11.21875,-27.25 0,-18.26876 -0.10967,-29.22379 -2,-36.28125 -0.94517,-3.52873 -2.43627,-6.19601 -4.6875,-7.96875 -2.25123,-1.77274 -5.09169,-2.56177 -8.4375,-2.9375 l -2.125,-0.21875 -0.0312,2.15625 -0.90625,42.9375 0,0.0312 c 0,0.40344 -0.19345,1.03073 -0.46875,1.40625 -0.2753,0.37552 -0.46003,0.5 -0.875,0.5 l -1.15625,0 c -0.92057,0 -1.43359,-0.1538 -1.4375,-0.15625 -0.004,-0.002 0.0937,0.31246 0.0937,-0.125 l 0,-0.0625 0,-0.0625 c 0,0 -0.67036,-10.24124 -1.4375,-20.75 -0.38357,-5.25438 -0.79484,-10.57238 -1.15625,-14.71875 -0.1807,-2.07319 -0.34951,-3.87361 -0.5,-5.21875 -0.0752,-0.67257 -0.15037,-1.23327 -0.21875,-1.6875 -0.0684,-0.45423 -0.0746,-0.67204 -0.28125,-1.21875 -0.59512,-1.57455 -1.8984,-2.57238 -3.03125,-2.96875 -1.13285,-0.39637 -2.14002,-0.375 -2.625,-0.375 z m 0,3.9375 c 0.45959,0 0.95777,0.0321 1.3125,0.15625 0.35473,0.12411 0.50959,0.1543 0.6875,0.625 -0.11,-0.29105 0.007,0.0668 0.0625,0.4375 0.0558,0.37067 0.1155,0.8877 0.1875,1.53125 0.14399,1.28709 0.32082,3.03802 0.5,5.09375 0.35836,4.11146 0.74213,9.44275 1.125,14.6875 0.76113,10.42651 1.42953,20.4719 1.4375,20.59375 5e-5,7.4e-4 0,0.125 0,0.125 l 0.0312,0 c 0.0408,1.26738 0.67641,2.64168 1.75,3.3125 1.10944,0.69323 2.26297,0.78125 3.5,0.78125 l 1.15625,0 c 1.74262,0 3.1932,-0.95062 4.03125,-2.09375 0.83143,-1.1341 1.21271,-2.43885 1.21875,-3.71875 5e-5,-0.0102 0,-0.0211 0,-0.0312 l 0.84375,-40.5625 c 1.782,0.37865 3.2743,0.86997 4.3125,1.6875 1.43943,1.13348 2.49993,2.8413 3.3125,5.875 1.62514,6.06739 1.875,17.03772 1.875,35.28125 0,10.11252 -3.58105,18.87281 -9.84375,24.28125 -1.2346,1.06557 -2.55605,2.02133 -4,2.8125 l -0.0312,0 c -1.19918,0.65898 -2.39876,1.21699 -3.6875,1.65625 l -1.375,0.46875 0.0312,1.4375 3.875,148.53125 c 0,0.0766 -0.0562,0.36515 -0.5,0.8125 -0.44376,0.44735 -1.21179,0.96538 -2.09375,1.40625 -1.76393,0.88174 -4.08095,1.4375 -5.09375,1.4375 l -5.09375,0 c -1.01078,0 -3.36085,-0.55393 -5.125,-1.4375 -0.88207,-0.44178 -1.61835,-0.95803 -2.0625,-1.40625 -0.44415,-0.44822 -0.53125,-0.73595 -0.53125,-0.8125 l 3.875,-147.96875 0.0312,-1.5625 -1.5,-0.40625 c -1.31793,-0.3392 -2.55229,-0.76475 -3.71875,-1.28125 -1.19003,-0.5292 -2.31074,-1.14042 -3.375,-1.84375 -7.77431,-5.12636 -12.28125,-14.76929 -12.28125,-26.125 0,-17.60138 0.037,-28.45064 1.375,-34.65625 0.66898,-3.1028 1.63776,-4.92849 2.875,-6.125 0.82433,-0.7972 1.97201,-1.32831 3.34375,-1.75 l 0.84375,40 c 0,0.0103 -5e-5,0.021 0,0.0312 0.006,1.2911 0.34966,2.59487 1.15625,3.78125 0.81301,1.19583 2.28587,2.28125 4.09375,2.28125 l 1.15625,0 c 1.67827,0 3.13468,-0.83035 4,-1.90625 0.829,-1.03074 1.19403,-2.25107 1.21875,-3.46875 l 0.0312,0 c 0,0 -8e-5,-0.15509 0,-0.15625 0.0101,-0.15245 0.69495,-10.16203 1.5,-20.46875 0.40558,-5.19249 0.84921,-10.41229 1.25,-14.40625 0.20039,-1.99698 0.39393,-3.71087 0.5625,-4.90625 0.0843,-0.59769 0.15673,-1.07943 0.21875,-1.375 0.004,-0.0174 -0.004,-0.0151 0,-0.0312 0.24308,-0.26701 0.48545,-0.50949 0.53125,-0.53125 0.062,-0.0294 0.27107,-0.0937 1,-0.0937 z"
         id="path7"
         inkscape:connector-curvature="0" />
      <path
         style="font-size:medium;font-style:normal;font-variant:normal;font-weight:normal;font-stretch:normal;text-indent:0;text-align:start;text-decoration:none;line-height:normal;letter-spacing:normal;word-spacing:normal;text-transform:none;direction:ltr;block-progression:tb;writing-mode:lr-tb;text-anchor:start;baseline-shift:baseline;color:#000000;fill:#000000;fill-opacity:1;fill-rule:nonzero;stroke:none;stroke-width:4.37494373;marker:none;visibility:visible;display:inline;overflow:visible;enable-background:accumulate;font-family:Sans;-inkscape-font-specification:Sans"
         d="m 300.1875,149.65625 c -3.92854,-0.0532 -7.48302,1.62614 -10.4375,4.34375 -2.95448,2.71761 -5.41068,6.46261 -7.5625,10.875 -4.30364,8.82479 -7.37926,20.40308 -9.625,32.1875 -2.24574,11.78442 -3.65264,23.77323 -4.5,33.25 -0.84736,9.47677 -1.125,16.29926 -1.125,18.28125 l 0,22.9375 c 0,2.84492 0.82409,5.48455 2.15625,7.71875 l 1.34375,2.28125 2,-1.78125 c 1.18468,-1.07261 3.22498,-1.21875 4.5625,-1.21875 0.89469,0 1.92242,0.0637 3.0625,0.125 1.20067,0.0651 2.53433,0.125 3.9375,0.125 l 1.28125,0 c 1.40377,0 2.71523,-0.0644 3.90625,-0.125 1.13014,-0.0648 2.1619,-0.125 3.0625,-0.125 1.34166,0 3.40796,0.14511 4.59375,1.21875 l 1.96875,1.78125 1.375,-2.28125 c 1.33131,-2.23336 2.15625,-4.87092 2.15625,-7.71875 l 0,-119.6875 0,-2.15625 -2.15625,-0.0312 z m -2.21875,4.8125 0,117.0625 c 0,1.23539 -0.26688,2.37221 -0.65625,3.46875 -2.04539,-0.8424 -4.07388,-0.84375 -5.0625,-0.84375 -1.05958,0 -2.15096,0.0603 -3.28125,0.125 -0.0107,6.2e-4 -0.0205,-6.2e-4 -0.0312,0 -1.2011,0.0612 -2.42412,0.125 -3.65625,0.125 l -1.28125,0 c -1.25125,0 -2.48615,-0.0599 -3.6875,-0.125 -1.13168,-0.0609 -2.23691,-0.125 -3.3125,-0.125 -0.98127,0 -2.99475,0.0134 -5.03125,0.84375 -0.38939,-1.0974 -0.65625,-2.23587 -0.65625,-3.46875 l 0,-22.9375 c 0,-1.50281 0.25554,-8.53171 1.09375,-17.90625 0.83821,-9.37454 2.23102,-21.23409 4.4375,-32.8125 2.20648,-11.57841 5.25368,-22.89915 9.25,-31.09375 1.99816,-4.0973 4.23362,-7.39159 6.59375,-9.5625 1.69819,-1.56204 3.45788,-2.3337 5.28125,-2.75 z"
         id="path9"
         inkscape:connector-curvature="0" />
      <path
         style="font-size:medium;font-style:normal;font-variant:normal;font-weight:normal;font-stretch:normal;text-indent:0;text-align:start;text-decoration:none;line-height:normal;letter-spacing:normal;word-spacing:normal;text-transform:none;direction:ltr;block-progression:tb;writing-mode:lr-tb;text-anchor:start;baseline-shift:baseline;color:#000000;fill:#000000;fill-opacity:1;fill-rule:nonzero;stroke:none;stroke-width:3.92286634;marker:none;visibility:visible;display:inline;overflow:visible;enable-background:accumulate;font-family:Sans;-inkscape-font-specification:Sans"
         d="m 277,278.46875 c -1.86083,0 -3.53788,0.0735 -4.8125,1.40625 -1.06474,1.11531 -1.28125,2.57483 -1.28125,4.21875 l 0,90.5625 c 0,7.3989 5.85593,13.53125 13.09375,13.53125 l 1.28125,0 c 7.24066,0 13.0625,-6.12991 13.0625,-13.53125 l 0,-90.5625 c 0,-1.6475 -0.19663,-3.10672 -1.25,-4.21875 -1.26971,-1.3396 -2.97919,-1.40625 -4.84375,-1.40625 -1.00119,0 -2.01203,0.0369 -3.0625,0.0937 -1.26175,0.0726 -2.57513,0.15625 -3.90625,0.15625 l -1.28125,0 c -1.33208,0 -2.6414,-0.0867 -3.90625,-0.15625 -1.06378,-0.0614 -2.10192,-0.0937 -3.09375,-0.0937 z m 0,3.90625 c 0.84023,0 1.82228,0.0642 2.875,0.125 1.26739,0.0697 2.6564,0.125 4.125,0.125 l 1.28125,0 c 1.46154,0 2.84651,-0.0514 4.125,-0.125 1.05803,-0.0573 2.00488,-0.125 2.84375,-0.125 1.62026,0 2.05067,0.24096 2,0.1875 -0.0277,-0.0292 0.1875,0.26389 0.1875,1.53125 l 0,90.5625 c 0,5.3569 -4.12649,9.625 -9.15625,9.625 l -1.28125,0 c -5.0236,0 -9.15625,-4.27366 -9.15625,-9.625 l 0,-90.5625 c 0,-1.24527 0.17717,-1.51914 0.15625,-1.5 -0.0446,0.0466 0.38405,-0.21875 2,-0.21875 z"
         id="path11"
         inkscape:connector-curvature="0" />
      <path
         inkscape:connector-curvature="0"
         style="fill:#727272;fill-opacity:1;stroke:none"
         d="m 276.06627,249.18955 v 21.06308 c 0,2.22995 0.50788,4.2951 1.34535,6.06432 1.41367,-1.61227 3.41269,-1.63482 4.40762,-1.63482 0.71871,0 1.50283,0.0562 2.33152,0.1123 0.8762,0.0598 1.80281,0.12335 2.77108,0.12335 h 0.93245 c 0.96535,0 1.89489,-0.0672 2.77108,-0.12335 0.82869,-0.0598 1.61281,-0.1123 2.33151,-0.1123 0.99787,0 2.99396,0.0225 4.40764,1.63482 0.83746,-1.76967 1.34534,-3.83116 1.34534,-6.06432 V 160.27207 c -19.30215,-0.32909 -22.64359,82.51258 -22.64359,88.91748 z"
         id="path3986" />
      <path
         inkscape:connector-curvature="0"
         style="fill:#606060;fill-opacity:1;stroke:none"
         d="m 292.05314,286.00199 c -0.62763,0 -1.30824,0.0529 -2.02745,0.10597 -0.86648,0.0679 -1.78864,0.13244 -2.74122,0.13244 h -0.87501 c -0.95532,0 -1.87747,-0.0679 -2.74121,-0.13244 -0.72194,-0.0566 -1.40255,-0.10597 -2.02746,-0.10597 -1.18594,0 -1.90516,0.15103 -2.32472,0.74775 -0.3526,0.50238 -0.4944,1.31474 -0.4944,2.66711 v 84.04022 c 0,5.91558 3.40508,10.73206 7.58745,10.73206 h 0.87194 c 4.18544,0 7.58745,-4.81277 7.58745,-10.73206 v -84.04022 c 0,-1.35237 -0.14453,-2.16473 -0.4944,-2.66711 -0.41581,-0.59672 -1.13229,-0.74775 -2.32097,-0.74775 z"
         id="path3988" />
      <path
         sodipodi:nodetypes="ccccccccccccsccccssccccsc"
         inkscape:connector-curvature="0"
         style="fill:#5c5c5c;fill-opacity:1;stroke:none"
         d="m 236.96884,161.15758 -1.02007,42.95626 c -0.0188,1.96547 -3.53895,2.74103 -6.6262,2.69554 -1.8144,0 -6.85647,-0.4087 -6.85647,-2.09509 0,0 -3.06506,-41.37228 -3.71513,-43.35636 -0.66295,-3.09975 -1.02059,0.41963 -1.29231,0.53135 -0.88761,1.26035 -3.17625,40.9852 -3.17625,40.9852 0.0101,1.5285 -0.95858,3.44761 -2.77298,3.44761 l 0,0 -0.97248,0 c -8.39548,-0.4159 -8.06414,1.1981 -10.15273,-3.0785 l -1.17529,-41.20624 c -4.30368,9.41489 -1.83181,8.57114 -1.83181,42.72079 0,11.52005 3.96783,17.52391 11.05442,22.91446 0.96869,0.73849 1.99254,1.32506 3.07789,1.88184 1.07483,0.54902 2.21155,0.92619 3.39631,1.27794 l -3.25564,147.76154 c 0,2.99771 5.53247,5.44593 8.13067,5.44593 l 4.27949,0 c 2.59861,0 5.01256,-2.44045 5.01256,-5.43815 L 225.2041,234.46027 c 1.19486,-0.46981 3.62277,-1.74939 4.69422,-2.4286 2.0532,-0.69544 3.87706,-2.24578 4.9999,-3.36373 5.69672,-5.67524 9.92524,-13.64616 9.92524,-23.90641 0,-35.42014 2.78536,-42.22557 -7.85462,-43.60395 z"
         id="path3990" />
    </g>
    <g
       transform="matrix(0.06857231,0,0,0.06857231,2.9659114,252.96613)"
       id="g13" />
    <g
       transform="matrix(0.06857231,0,0,0.06857231,2.9659114,252.96613)"
       id="g15" />
    <g
       transform="matrix(0.06857231,0,0,0.06857231,2.9659114,252.96613)"
       id="g17" />
    <g
       transform="matrix(0.06857231,0,0,0.06857231,2.9659114,252.96613)"
       id="g19" />
    <g
       transform="matrix(0.06857231,0,0,0.06857231,2.9659114,252.96613)"
       id="g21" />
    <g
       transform="matrix(0.06857231,0,0,0.06857231,2.9659114,252.96613)"
       id="g23" />
    <g
       transform="matrix(0.06857231,0,0,0.06857231,2.9659114,252.96613)"
       id="g25" />
    <g
       transform="matrix(0.06857231,0,0,0.06857231,2.9659114,252.96613)"
       id="g27" />
    <g
       transform="matrix(0.06857231,0,0,0.06857231,2.9659114,252.96613)"
       id="g29" />
    <g
       transform="matrix(0.06857231,0,0,0.06857231,2.9659114,252.96613)"
       id="g31" />
    <g
       transform="matrix(0.06857231,0,0,0.06857231,2.9659114,252.96613)"
       id="g33" />
    <g
       transform="matrix(0.06857231,0,0,0.06857231,2.9659114,252.96613)"
       id="g35" />
    <g
       transform="matrix(0.06857231,0,0,0.06857231,2.9659114,252.96613)"
       id="g37" />
    <g
       transform="matrix(0.06857231,0,0,0.06857231,2.9659114,252.96613)"
       id="g39" />
    <g
       transform="matrix(0.06857231,0,0,0.06857231,2.9659114,252.96613)"
       id="g41" />
  </g>
</svg>
