<?xml version="1.0" encoding="UTF-8" standalone="no"?>
<!-- Created with Inkscape (http://www.inkscape.org/) -->

<svg
   xmlns:dc="http://purl.org/dc/elements/1.1/"
   xmlns:cc="http://creativecommons.org/ns#"
   xmlns:rdf="http://www.w3.org/1999/02/22-rdf-syntax-ns#"
   xmlns:svg="http://www.w3.org/2000/svg"
   xmlns="http://www.w3.org/2000/svg"
   xmlns:sodipodi="http://sodipodi.sourceforge.net/DTD/sodipodi-0.dtd"
   xmlns:inkscape="http://www.inkscape.org/namespaces/inkscape"
   width="141.73228"
   height="141.73228"
   viewBox="0 0 40.000001 40.000001"
   version="1.1"
   id="svg8"
   sodipodi:docname="marker_convivence_store.svg"
   inkscape:version="0.48.4 r9939">
  <defs
     id="defs2" />
  <sodipodi:namedview
     id="base"
     pagecolor="#ffffff"
     bordercolor="#666666"
     borderopacity="1.0"
     inkscape:pageopacity="0.0"
     inkscape:pageshadow="2"
     inkscape:zoom="1.979899"
     inkscape:cx="-23.716529"
     inkscape:cy="38.394655"
     inkscape:document-units="mm"
     inkscape:current-layer="layer1"
     showgrid="false"
     inkscape:window-width="1280"
     inkscape:window-height="971"
     inkscape:window-x="-8"
     inkscape:window-y="-8"
     inkscape:window-maximized="1"
     units="mm" />
  <metadata
     id="metadata5">
    <rdf:RDF>
      <cc:Work
         rdf:about="">
        <dc:format>image/svg+xml</dc:format>
        <dc:type
           rdf:resource="http://purl.org/dc/dcmitype/StillImage" />
        <dc:title />
      </cc:Work>
    </rdf:RDF>
  </metadata>
  <g
     inkscape:label="Layer 1"
     inkscape:groupmode="layer"
     id="layer1"
     transform="translate(0,-257)">
    <path
       style="fill:#37c837;fill-opacity:1;stroke:none"
       d="m 19.731481,297.04387 c 0,0 -14.4895046,-13.57587 -14.4895046,-24.58716 0,-11.01129 8.0122856,-15.41284 14.4895046,-15.41284 6.477221,0 14.938792,4.16141 14.938792,15.41284 0,11.25143 -14.938792,24.58716 -14.938792,24.58716 z"
       id="path4747-4"
       inkscape:connector-curvature="0"
       sodipodi:nodetypes="czzzc" />
    <ellipse
       style="fill:#ffffff;fill-opacity:1;stroke:#ffffff;stroke-width:2.84251475;stroke-miterlimit:4;stroke-opacity:1;stroke-dasharray:none"
       id="ellipse4749-0"
       cx="70.268692"
       cy="169.42744"
       rx="15.004569"
       ry="14.967523"
       sodipodi:cx="70.268692"
       sodipodi:cy="169.42744"
       sodipodi:rx="15.004569"
       sodipodi:ry="14.967523"
       d="m 85.273261,169.42744 c 0,8.26634 -6.717774,14.96753 -15.004569,14.96753 -8.286795,0 -15.004569,-6.70119 -15.004569,-14.96753 0,-8.26633 6.717774,-14.96752 15.004569,-14.96752 8.286795,0 15.004569,6.70119 15.004569,14.96752 z"
       transform="matrix(0.66592917,0,0,0.66592917,-26.837846,159.062)" />
    <g
       id="g98"
       transform="matrix(-0.03807538,0,0,0.04070447,30.630777,240.92608)">
      <g
         id="g100">
        <path
           d="m 455.483,665.985 c 2.298,0.117 4.513,1.863 5.742,4.498 1.639,3.514 0.885,7.244 -2.119,8.641 0,0 -46.828,21.818 -70.055,32.648 -1.973,0.92 -5.836,6.179 -7.973,7.176 l -80.756,37.658 c -3.903,1.82 -8.852,-0.586 -11.094,-5.395 l -0.357,-0.768 c -2.242,-4.808 -0.905,-10.145 2.998,-11.965 l 80.756,-37.656 c 2.137,-0.997 8.536,-0.818 10.51,-1.736 23.238,-10.806 70.055,-32.648 70.055,-32.648 0.751,-0.35 1.527,-0.493 2.293,-0.453 z"
           style="fill:#221d20"
           id="SVGCleanerId_0_1_"
           inkscape:connector-curvature="0" />
      </g>
    </g>
    <g
       id="g4075"
       transform="matrix(0.10329461,0,0,0.11042708,7.0116456,243.01346)">
      <rect
         id="rect3"
         height="51.714966"
         width="39.546673"
         style="fill:#d8ccbc"
         y="215.69073"
         x="123.18408" />
      <rect
         id="rect5"
         height="57.799114"
         width="48.67289"
         style="fill:#95d5a7"
         y="209.6066"
         x="77.553276" />
      <rect
         id="rect7"
         height="57.799114"
         width="12.168294"
         style="fill:#80cb93"
         y="209.6066"
         x="114.05787" />
      <path
         id="path37"
         d="m 141.43653,237.70152 c -2.33793,0 -4.46927,0.87997 -6.08415,2.3258 -1.61459,-1.44554 -3.74621,-2.3258 -6.08414,-2.3258 -5.04049,0 -9.12622,4.08602 -9.12622,9.12623 0,5.0402 3.04207,17.53587 9.12622,17.53587 2.33793,0 4.46927,-0.87997 6.08414,-2.32579 1.6146,1.44554 3.74622,2.32579 6.08415,2.32579 6.08415,0 9.12622,-12.49595 9.12622,-17.53587 0,-5.03993 -4.08601,-9.12623 -9.12622,-9.12623 z"
         style="fill:#e07188"
         inkscape:connector-curvature="0" />
      <path
         id="path39"
         d="m 141.43653,237.70152 c -1.66285,0 -3.22016,0.44733 -4.5624,1.224 2.72654,1.57847 4.5624,4.52487 4.5624,7.90194 0,3.87294 -1.79663,12.14713 -5.38903,15.77256 1.51045,1.10772 3.37255,1.7636 5.38903,1.7636 6.08415,0 9.12622,-12.49595 9.12622,-17.53587 0,-5.03993 -4.08601,-9.12623 -9.12622,-9.12623 z"
         style="fill:#dc4161"
         inkscape:connector-curvature="0" />
      <path
         id="path41"
         d="m 176.42023,264.36362 h -15.21037 c -2.5098,0 -4.56297,-2.05345 -4.56297,-4.56297 v -24.33658 c 0,-2.50981 2.05345,-4.56297 4.56297,-4.56297 h 15.21037 c 2.5098,0 4.56297,2.05345 4.56297,4.56297 v 24.33658 c 0,2.50952 -2.05345,4.56297 -4.56297,4.56297 z"
         style="fill:#d1e5f5"
         inkscape:connector-curvature="0" />
      <path
         id="path43"
         d="m 176.42023,230.90082 h -9.12622 c 2.5098,0 4.56297,2.05344 4.56297,4.56296 v 24.33659 c 0,2.5098 -2.05345,4.56297 -4.56297,4.56297 h 9.12622 c 2.5098,0 4.56297,-2.05345 4.56297,-4.56297 v -24.33659 c 0,-2.50952 -2.05345,-4.56296 -4.56297,-4.56296 z"
         style="fill:#b4d8f1"
         inkscape:connector-curvature="0" />
      <circle
         id="circle45"
         r="32.337002"
         cy="180.547"
         cx="137.43201"
         style="fill:#f8e99b"
         sodipodi:cx="137.43201"
         sodipodi:cy="180.547"
         sodipodi:rx="32.337002"
         sodipodi:ry="32.337002"
         transform="matrix(0.28222223,0,0,0.28222223,57.019347,186.03059)"
         d="m 169.76901,180.547 c 0,17.85923 -14.47777,32.337 -32.337,32.337 -17.85924,0 -32.337,-14.47777 -32.337,-32.337 0,-17.85924 14.47776,-32.337 32.337,-32.337 17.85923,0 32.337,14.47776 32.337,32.337 z" />
      <path
         id="path47"
         transform="matrix(0.28222223,0,0,0.28222223,0,257)"
         d="m 274.78125,-176 c -4.465,0 -8.0625,3.59652 -8.0625,8.0625 l 0,188.125 c -0.01,0.0023 -0.0214,-0.0023 -0.0312,0 l 0,13.84375 380.5625,0 0,-14.40625 0.0625,0 c 1.30043,-2.970012 2.0625,-6.242654 2.0625,-9.6875 l 0,-86.25 c 0,-7.612972 -3.52725,-14.426024 -9.03125,-18.875 l 0.9375,0 c 4.46598,0 8.09375,-3.59648 8.09375,-8.0625 0,-4.46598 -3.62777,-8.09375 -8.09375,-8.09375 l -56.59375,0 0,-35.03125 c 0,-4.46602 -3.62777,-8.09375 -8.09375,-8.09375 l -121.25,0 0,-13.46875 c 0,-4.46598 -3.62975,-8.0625 -8.09375,-8.0625 l -172.46875,0 z m 8.09375,16.15625 113.1875,0 0,177.84375 -110.5,0 -2.6875,0 0,-177.84375 z m 129.34375,0 26.96875,0 0,85.53125 c -12.80902,6.789012 -21.5625,20.24077 -21.5625,35.71875 0,9.337996 2.69527,26.100512 8.65625,40.8125 2.66701,6.5809843 5.56026,11.736246 8.53125,15.78125 l -22.59375,0 0,-177.84375 z m 43.125,21.5625 113.1875,0 0,26.9375 -13.46875,0 c -4.46598,0 -8.09375,3.62777 -8.09375,8.09375 0,4.46602 3.62777,8.0625 8.09375,8.0625 l 0.9375,0 c -5.504,4.450004 -9.03125,11.26302 -9.03125,18.875 l 0,86.25 c 0,2.834008 0.47698,5.53148 1.375,8.0625 L 524.375,18 c 2.97103,-4.045004 5.86527,-9.2022499 8.53125,-15.78125 5.96101,-14.710996 8.65625,-31.474504 8.65625,-40.8125 C 541.5625,-60.882746 523.44525,-79 501.15625,-79 c -4.36698,0 -8.65075,0.713492 -12.71875,2.0625 2.67998,-10.476 12.201,-18.21875 23.5,-18.21875 4.46602,0 8.09375,-3.62773 8.09375,-8.09375 0,-4.46598 -3.62773,-8.09375 -8.09375,-8.09375 -20.37798,0 -37.28324,15.149239 -40.03125,34.78125 -4.405,-1.610008 -9.09501,-2.4375 -13.875,-2.4375 -0.90702,0 -1.79551,0.03493 -2.6875,0.09375 l 0,-59.375 z m 115.875,53.875 53.90625,0 c 4.45798,0 8.0625,3.635774 8.0625,8.09375 l 0,86.25 c 0,4.458012 -3.60452,8.0625 -8.0625,8.0625 l -53.90625,0 c -4.45801,9.92e-4 -8.09375,-3.603496 -8.09375,-8.0625 l 0,-86.25 c 0,-4.457976 3.63574,-8.09375 8.09375,-8.09375 z m -113.1875,21.5625 c 5.97398,0 11.70625,2.204504 16.15625,6.1875 3.06999,2.748012 7.7435,2.748012 10.8125,0 4.451,-3.983988 10.18223,-6.1875 16.15625,-6.1875 13.37198,0 24.25,10.876992 24.25,24.25 0,18.263976 -10.97599,54.0625 -24.25,54.0625 -5.97402,0 -11.70628,-2.204504 -16.15625,-6.1875 -1.53503,-1.372996 -3.47724,-2.0625 -5.40625,-2.0625 -1.92798,0 -3.87125,0.689504 -5.40625,2.0625 -4.451,3.983988 -10.18223,6.1875 -16.15625,6.1875 -13.27298,0 -24.25,-35.797532 -24.25,-54.0625 9.9e-4,-13.373008 10.87699,-24.25 24.25,-24.25 z"
         style="fill:#2e2d31"
         inkscape:connector-curvature="0" />
    </g>
    <path
       id="path79"
       d="m 25.802896,270.96212 -11.285847,0.0228 c -0.706146,0.002 -1.456231,0.25286 -1.312725,1.03931 l 1.13438,6.26385 c 0.142478,0.7867 0.568503,1.44635 1.274649,1.44635 h 8.802837 c 0.706146,0 1.10708,-0.66535 1.27465,-1.44635 l 1.34863,-6.28668 c 0.167493,-0.78104 -0.530466,-1.04077 -1.236574,-1.0393 z m -9.925033,2.47674 h 3.700165 l -0.0066,1.09861 h -3.69354 c -0.295313,0 -0.533056,-0.24495 -0.533056,-0.54926 0,-0.30431 0.237743,-0.54687 0.533056,-0.54935 z m 4.790873,0 h 3.700165 c 0.295313,0 0.533055,0.24504 0.533055,0.54935 0,0.30431 -0.237742,0.55175 -0.533055,0.54926 H 20.67536 l -0.0066,-1.09861 z m -4.489544,1.79084 h 3.392211 v 1.09852 h -3.392211 c -0.274371,0 -0.495285,-0.24495 -0.495285,-0.54926 0,-0.30431 0.220914,-0.54926 0.495285,-0.54926 l 0,0 z m 4.496168,0 h 3.392212 c 0.274371,0 0.495284,0.24495 0.495284,0.54926 0,0.30431 -0.220913,0.54926 -0.495284,0.54926 H 20.67536 v -1.09852 z m -4.021445,1.7907 h 2.91745 v 1.09862 h -2.91745 c -0.241321,0 -0.43562,-0.24504 -0.43562,-0.54935 0,-0.3043 0.194299,-0.54927 0.43562,-0.54927 z m 4.021445,0 h 2.91745 c 0.241322,0 0.435621,0.24497 0.435621,0.54927 0,0.30431 -0.194299,0.54935 -0.435621,0.54935 h -2.91745 v -1.09862 z"
       style="fill:#2b9b2b;fill-opacity:1"
       inkscape:connector-curvature="0" />
    <path
       id="path81"
       d="m 13.21628,272.09056 0.0447,0.24671 h 13.706375 l 0.05296,-0.24671 c 0,0 -13.804038,0 -13.804038,0 z"
       style="fill:#5d9f2a;fill-opacity:1"
       inkscape:connector-curvature="0" />
    <path
       id="path83"
       d="m 12.966086,270.78798 h 14.316343 c 0.253125,0 0.456904,0.21785 0.456904,0.48845 v 0.32564 c 0,0.2706 -0.203779,0.48845 -0.456904,0.48845 H 12.966086 c -0.253125,0 -0.456904,-0.21785 -0.456904,-0.48845 v -0.32564 c 0,-0.2706 0.203779,-0.48845 0.456904,-0.48845 l 0,0 z"
       style="fill:#2d272b"
       inkscape:connector-curvature="0" />
    <g
       id="g85"
       transform="matrix(0.03807538,0,0,0.04070447,11.136184,240.92608)">
      <path
         d="m 6.59,665.985 c -2.298,0.117 -4.513,1.863 -5.742,4.498 -1.639,3.514 -0.885,7.244 2.119,8.641 0,0 46.828,21.818 70.055,32.648 1.973,0.92 5.836,6.179 7.973,7.176 l 80.756,37.658 c 3.903,1.82 8.852,-0.586 11.094,-5.395 l 0.357,-0.768 c 2.242,-4.808 0.905,-10.145 -2.998,-11.965 L 89.448,700.822 c -2.137,-0.997 -8.536,-0.818 -10.51,-1.736 C 55.7,688.28 8.883,666.438 8.883,666.438 8.132,666.088 7.356,665.945 6.59,665.985 z"
         style="fill:#221d20"
         id="SVGCleanerId_0"
         inkscape:connector-curvature="0" />
    </g>
    <path
       id="path88"
       d="m 11.268572,268.19975 c -0.06241,0.14303 -0.03366,0.29486 0.08072,0.35173 0,0 1.783031,0.88809 2.66737,1.32895 0.07512,0.0374 0.22217,0.25156 0.303537,0.2921 l 3.074854,1.5328 c 0.148646,0.0741 0.337004,-0.0238 0.42237,-0.21955 l 0.01363,-0.0312 c 0.08537,-0.19571 0.03445,-0.41294 -0.114188,-0.48702 l -3.074815,-1.53285 c -0.08136,-0.0406 -0.324974,-0.0333 -0.400135,-0.0706 -0.884795,-0.43986 -2.667371,-1.32896 -2.667371,-1.32896 -0.11434,-0.0569 -0.243567,0.0216 -0.305973,0.16465 l 0,0 z"
       style="fill:#37c837;fill-opacity:1"
       inkscape:connector-curvature="0" />
    <path
       id="path90"
       d="m 17.575682,271.16661 c 0.07623,0.038 0.1092,0.1349 0.07367,0.21639 0,0 0,0 0,0 -0.03556,0.0815 -0.126181,0.11674 -0.202408,0.0788 -0.07623,-0.038 -0.1092,-0.13489 -0.07367,-0.21638 0.03556,-0.0815 0.126181,-0.11678 0.202408,-0.0788 l 0,0 z"
       style="fill:#4b4c4d"
       inkscape:connector-curvature="0" />
    <path
       id="path92"
       d="m 17.555502,271.2348 c 0.0428,0.0213 0.0613,0.0757 0.04135,0.12145 -0.01995,0.0458 -0.07082,0.0656 -0.113618,0.0442 h 0 c -0.0428,-0.0213 -0.0613,-0.0757 -0.04135,-0.12146 0.01995,-0.0458 0.07082,-0.0655 0.113617,-0.0442 l 0,0 z"
       style="fill:#38393a"
       inkscape:connector-curvature="0" />
    <path
       id="path94"
       d="m 17.547468,271.23133 c 0.0428,0.0213 0.0613,0.0757 0.04135,0.12146 -0.01995,0.0458 -0.07082,0.0655 -0.113618,0.0442 h 0 c -0.0428,-0.0213 -0.0613,-0.0757 -0.04135,-0.12147 0.01995,-0.0458 0.07082,-0.0655 0.113617,-0.0442 l 0,0 z"
       style="fill:#ecf0f1"
       inkscape:connector-curvature="0" />
    <path
       id="path96"
       d="m 17.52885,271.27399 c 0.02075,0.0103 0.02974,0.0367 0.02006,0.0589 -0.0097,0.0222 -0.03434,0.0318 -0.05514,0.0215 0,0 0,0 0,0 -0.02075,-0.0103 -0.02974,-0.0367 -0.02006,-0.0589 l 0,0 c 0.0097,-0.0222 0.03439,-0.0318 0.05514,-0.0215 0,0 0,0 0,0 z"
       style="fill:#909090"
       inkscape:connector-curvature="0" />
    <path
       id="path103"
       d="m 28.5974,268.19975 c 0.0624,0.14303 0.03366,0.29486 -0.08072,0.35173 0,0 -1.783032,0.88809 -2.66737,1.32895 -0.07512,0.0374 -0.22217,0.25156 -0.303538,0.2921 l -3.074853,1.5328 c -0.148646,0.0741 -0.337005,-0.0238 -0.42237,-0.21955 l -0.01363,-0.0312 c -0.08537,-0.19571 -0.03446,-0.41294 0.114188,-0.48702 l 3.074853,-1.53282 c 0.08136,-0.0406 0.324973,-0.0333 0.400134,-0.0706 0.884796,-0.43985 2.667371,-1.32896 2.667371,-1.32896 0.114302,-0.057 0.24353,0.0216 0.305935,0.16461 l 0,0 z"
       style="fill:#37c837;fill-opacity:1"
       inkscape:connector-curvature="0" />
    <path
       id="path105"
       d="m 22.290289,271.16661 c -0.07623,0.038 -0.1092,0.1349 -0.07367,0.21639 0.03557,0.0815 0.126182,0.11674 0.202409,0.0788 0.07622,-0.038 0.1092,-0.13489 0.07367,-0.21638 -0.03557,-0.0815 -0.126182,-0.11678 -0.202409,-0.0788 z"
       style="fill:#4b4c4d"
       inkscape:connector-curvature="0" />
    <path
       id="path107"
       d="m 22.31047,271.2348 c -0.0428,0.0213 -0.0613,0.0757 -0.04135,0.12145 0.01995,0.0458 0.07082,0.0656 0.113617,0.0442 l 0,0 c 0.0428,-0.0213 0.0613,-0.0757 0.04135,-0.12146 -0.01995,-0.0458 -0.07082,-0.0655 -0.113616,-0.0442 l 0,0 z"
       style="fill:#38393a"
       inkscape:connector-curvature="0" />
    <path
       id="path109"
       d="m 22.318504,271.23133 c -0.0428,0.0213 -0.0613,0.0757 -0.04135,0.12146 0.01995,0.0458 0.07082,0.0655 0.113617,0.0442 h 0 c 0.0428,-0.0213 0.0613,-0.0757 0.04135,-0.12147 -0.01995,-0.0458 -0.07081,-0.0655 -0.113617,-0.0442 l 0,0 z"
       style="fill:#ecf0f1"
       inkscape:connector-curvature="0" />
    <path
       id="path111"
       d="m 22.337122,271.27399 c -0.02075,0.0103 -0.02974,0.0367 -0.02006,0.0589 0.0097,0.0222 0.03434,0.0318 0.05514,0.0215 l 0,0 c 0.02075,-0.0103 0.02974,-0.0367 0.02006,-0.0589 l 0,0 c -0.0097,-0.0222 -0.03439,-0.0318 -0.05514,-0.0215 l 0,0 0,0 z"
       style="fill:#909090"
       inkscape:connector-curvature="0" />
  </g>
</svg>
