<?xml version="1.0" encoding="UTF-8" standalone="no"?>
<!-- Created with Inkscape (http://www.inkscape.org/) -->

<svg
   xmlns:dc="http://purl.org/dc/elements/1.1/"
   xmlns:cc="http://creativecommons.org/ns#"
   xmlns:rdf="http://www.w3.org/1999/02/22-rdf-syntax-ns#"
   xmlns:svg="http://www.w3.org/2000/svg"
   xmlns="http://www.w3.org/2000/svg"
   xmlns:sodipodi="http://sodipodi.sourceforge.net/DTD/sodipodi-0.dtd"
   xmlns:inkscape="http://www.inkscape.org/namespaces/inkscape"
   width="141.73228"
   height="141.73228"
   viewBox="0 0 40.000001 40.000001"
   version="1.1"
   id="svg8"
   sodipodi:docname="marker_pharmacy.svg"
   inkscape:version="0.48.4 r9939">
  <defs
     id="defs2">
    <style
       id="style3848">.cls-1{fill:#919ea8;}.cls-2{fill:#fff;}.cls-3{fill:none;stroke:#3d344c;stroke-linecap:round;stroke-linejoin:round;stroke-width:2px;}</style>
  </defs>
  <sodipodi:namedview
     id="base"
     pagecolor="#ffffff"
     bordercolor="#666666"
     borderopacity="1.0"
     inkscape:pageopacity="0.0"
     inkscape:pageshadow="2"
     inkscape:zoom="1.979899"
     inkscape:cx="-38.570789"
     inkscape:cy="56.519413"
     inkscape:document-units="mm"
     inkscape:current-layer="layer1"
     showgrid="false"
     inkscape:window-width="1920"
     inkscape:window-height="1027"
     inkscape:window-x="1272"
     inkscape:window-y="284"
     inkscape:window-maximized="1"
     units="mm" />
  <metadata
     id="metadata5">
    <rdf:RDF>
      <cc:Work
         rdf:about="">
        <dc:format>image/svg+xml</dc:format>
        <dc:type
           rdf:resource="http://purl.org/dc/dcmitype/StillImage" />
        <dc:title />
      </cc:Work>
    </rdf:RDF>
  </metadata>
  <g
     inkscape:label="Layer 1"
     inkscape:groupmode="layer"
     id="layer1"
     transform="translate(0,-257)">
    <path
       style="fill:#999999;fill-opacity:1;stroke:none"
       d="m 19.775357,297 c 0,0 -14.489505,-13.57587 -14.489505,-24.58716 0,-11.01129 8.012286,-15.41284 14.489505,-15.41284 6.477221,0 14.938792,4.16141 14.938792,15.41284 C 34.714149,283.66427 19.775357,297 19.775357,297 z"
       id="path4747"
       inkscape:connector-curvature="0"
       sodipodi:nodetypes="czzzc" />
    <ellipse
       style="fill:#ffffff;fill-opacity:1;stroke:#ffffff;stroke-width:2.84251475;stroke-miterlimit:4;stroke-opacity:1;stroke-dasharray:none"
       id="ellipse4749"
       cx="70.268692"
       cy="169.42744"
       rx="15.004569"
       ry="14.967523"
       sodipodi:cx="70.268692"
       sodipodi:cy="169.42744"
       sodipodi:rx="15.004569"
       sodipodi:ry="14.967523"
       d="m 85.273261,169.42744 c 0,8.26634 -6.717774,14.96753 -15.004569,14.96753 -8.286795,0 -15.004569,-6.70119 -15.004569,-14.96753 0,-8.26633 6.717774,-14.96752 15.004569,-14.96752 8.286795,0 15.004569,6.70119 15.004569,14.96752 z"
       transform="matrix(0.66592917,0,0,0.66592917,-26.793971,159.01813)" />
    <g
       transform="matrix(0.06857231,0,0,0.06857231,2.9659114,252.96613)"
       id="g13" />
    <g
       transform="matrix(0.06857231,0,0,0.06857231,2.9659114,252.96613)"
       id="g15" />
    <g
       transform="matrix(0.06857231,0,0,0.06857231,2.9659114,252.96613)"
       id="g17" />
    <g
       transform="matrix(0.06857231,0,0,0.06857231,2.9659114,252.96613)"
       id="g19" />
    <g
       transform="matrix(0.06857231,0,0,0.06857231,2.9659114,252.96613)"
       id="g21" />
    <g
       transform="matrix(0.06857231,0,0,0.06857231,2.9659114,252.96613)"
       id="g23" />
    <g
       transform="matrix(0.06857231,0,0,0.06857231,2.9659114,252.96613)"
       id="g25" />
    <g
       transform="matrix(0.06857231,0,0,0.06857231,2.9659114,252.96613)"
       id="g27" />
    <g
       transform="matrix(0.06857231,0,0,0.06857231,2.9659114,252.96613)"
       id="g29" />
    <g
       transform="matrix(0.06857231,0,0,0.06857231,2.9659114,252.96613)"
       id="g31" />
    <g
       transform="matrix(0.06857231,0,0,0.06857231,2.9659114,252.96613)"
       id="g33" />
    <g
       transform="matrix(0.06857231,0,0,0.06857231,2.9659114,252.96613)"
       id="g35" />
    <g
       transform="matrix(0.06857231,0,0,0.06857231,2.9659114,252.96613)"
       id="g37" />
    <g
       transform="matrix(0.06857231,0,0,0.06857231,2.9659114,252.96613)"
       id="g39" />
    <g
       transform="matrix(0.06857231,0,0,0.06857231,2.9659114,252.96613)"
       id="g41" />
    <path
       inkscape:connector-curvature="0"
       style="fill:#4d4d4d;fill-opacity:1;fill-rule:nonzero;stroke:none"
       d="m 13.441612,271.91282 0,7.04674 c -0.0019,0.0173 0,0.0351 0,0.0529 0,0.26421 0.212033,0.47625 0.47625,0.47625 l 12.117917,0 c 0.264217,0 0.47625,-0.21204 0.47625,-0.47625 0,-0.0179 0.0019,-0.0356 0,-0.0529 l 0,-7.04674 -13.070417,0 z m 6.535209,0.94368 c 1.551384,0 2.813403,1.25321 2.813403,2.80459 0,1.55139 -1.262019,2.8134 -2.813403,2.8134 -1.551383,0 -2.804584,-1.26201 -2.804584,-2.8134 0,-1.55138 1.253201,-2.80459 2.804584,-2.80459 z"
       id="rect3041" />
    <path
       style="fill:#ff0000;fill-opacity:1;fill-rule:nonzero;stroke:none"
       d="m 19.501252,273.42862 c -0.15391,0 -0.278844,0.12111 -0.278844,0.27502 l 0,1.26053 -1.256707,0 c -0.15391,0 -0.278844,0.12111 -0.278844,0.27502 l 0,0.92821 c 0,0.15391 0.124934,0.27885 0.278844,0.27885 l 1.256707,0 0,1.2567 c 0,0.15391 0.124934,0.27884 0.278844,0.27884 l 0.924383,0 c 0.153914,0 0.278844,-0.12493 0.278844,-0.27884 l 0,-1.2567 1.256707,0 c 0.153909,0 0.278844,-0.12494 0.278844,-0.27885 l 0,-0.92821 c 0,-0.15391 -0.124935,-0.27502 -0.278844,-0.27502 l -1.256707,0 0,-1.26053 c 0,-0.15391 -0.12493,-0.27502 -0.278844,-0.27502 l -0.924383,0 z"
       id="rect3845"
       inkscape:connector-curvature="0" />
    <path
       style="fill:#00aad4;fill-opacity:1;fill-rule:nonzero;stroke:none"
       d="m 24.659541,264.23095 0.166992,-8.6e-4 c 0.527123,-0.003 1.118831,0.2936 1.191137,0.61077 l 1.192083,5.22909 c 0.202263,0.88723 -0.712071,1.15084 -1.038941,1.15535 l -0.404786,0.006 c -0.52708,0.007 -1.399092,-0.48339 -1.466399,-1.0062 l -0.690057,-5.36005 c -0.06731,-0.52282 0.522846,-0.63128 1.049969,-0.63376 z"
       id="rect3850"
       inkscape:connector-curvature="0"
       sodipodi:nodetypes="sssssssss" />
    <path
       sodipodi:nodetypes="sssssssss"
       inkscape:connector-curvature="0"
       id="path3855"
       d="m 15.351991,264.2153 -0.167734,-8.7e-4 c -0.52948,-0.003 -1.123834,0.29493 -1.196467,0.61351 l -1.197413,5.25247 c -0.203167,0.89121 0.715255,1.156 1.043591,1.16053 l 0.406593,0.006 c 0.529436,0.007 1.405346,-0.48556 1.472959,-1.0107 l 0.693138,-5.38403 c 0.06761,-0.52515 -0.525179,-0.6341 -1.054663,-0.63659 z"
       style="fill:#00aad4;fill-opacity:1;fill-rule:nonzero;stroke:none" />
    <path
       style="fill:#00aad4;fill-opacity:1;fill-rule:nonzero;stroke:none"
       d="m 18.12074,264.22038 c -0.525776,0.0625 -0.918051,0.3627 -0.95095,0.68779 l -0.542329,5.35987 c -0.05769,0.57016 0.74311,0.97987 1.112915,0.96607 l 0.458766,-0.0172 c 0.529119,-0.0197 1.344598,-0.37359 1.348387,-1.15417 l 0.02573,-5.29744 c 0.0013,-0.25726 -0.642057,-0.52673 -0.902351,-0.55113 -0.260298,-0.0244 -0.406866,-0.0108 -0.550165,0.006 z"
       id="path3857"
       inkscape:connector-curvature="0"
       sodipodi:nodetypes="csssssszc" />
    <path
       sodipodi:nodetypes="csssssszc"
       inkscape:connector-curvature="0"
       id="path3859"
       d="m 21.858457,264.22824 c 0.524594,0.0624 0.915985,0.36188 0.948815,0.68624 l 0.541108,5.34783 c 0.05756,0.56888 -0.741438,0.97767 -1.110412,0.9639 l -0.457735,-0.0172 c -0.527937,-0.0197 -1.341579,-0.37274 -1.34536,-1.15158 l -0.02568,-5.28553 c -0.0013,-0.25669 0.640615,-0.52555 0.900324,-0.5499 0.259713,-0.0243 0.405952,-0.0108 0.54893,0.006 z"
       style="fill:#00aad4;fill-opacity:1;fill-rule:nonzero;stroke:none" />
  </g>
</svg>
