<?xml version="1.0" encoding="UTF-8" standalone="no"?>
<svg
   xmlns:dc="http://purl.org/dc/elements/1.1/"
   xmlns:cc="http://creativecommons.org/ns#"
   xmlns:rdf="http://www.w3.org/1999/02/22-rdf-syntax-ns#"
   xmlns:svg="http://www.w3.org/2000/svg"
   xmlns="http://www.w3.org/2000/svg"
   xmlns:sodipodi="http://sodipodi.sourceforge.net/DTD/sodipodi-0.dtd"
   xmlns:inkscape="http://www.inkscape.org/namespaces/inkscape"
   inkscape:version="1.0 (4035a4fb49, 2020-05-01)"
   sodipodi:docname="marker_tools_store.svg"
   id="svg8"
   version="1.1"
   viewBox="0 0 40.000001 40.000001"
   height="141.73228"
   width="141.73228">
  <defs
     id="defs2">
    <style
       id="style3848">.cls-1{fill:#919ea8;}.cls-2{fill:#fff;}.cls-3{fill:none;stroke:#3d344c;stroke-linecap:round;stroke-linejoin:round;stroke-width:2px;}</style>
  </defs>
  <sodipodi:namedview
     inkscape:document-rotation="0"
     units="mm"
     inkscape:window-maximized="1"
     inkscape:window-y="284"
     inkscape:window-x="1272"
     inkscape:window-height="1027"
     inkscape:window-width="1920"
     showgrid="false"
     inkscape:current-layer="layer1"
     inkscape:document-units="mm"
     inkscape:cy="14.830416"
     inkscape:cx="152.63146"
     inkscape:zoom="1.979899"
     inkscape:pageshadow="2"
     inkscape:pageopacity="0.0"
     borderopacity="1.0"
     bordercolor="#666666"
     pagecolor="#ffffff"
     id="base" />
  <metadata
     id="metadata5">
    <rdf:RDF>
      <cc:Work
         rdf:about="">
        <dc:format>image/svg+xml</dc:format>
        <dc:type
           rdf:resource="http://purl.org/dc/dcmitype/StillImage" />
        <dc:title></dc:title>
      </cc:Work>
    </rdf:RDF>
  </metadata>
  <g
     transform="translate(0,-257)"
     id="layer1"
     inkscape:groupmode="layer"
     inkscape:label="Layer 1">
    <path
       sodipodi:nodetypes="czzzc"
       inkscape:connector-curvature="0"
       id="path4747"
       d="m 19.775357,297 c 0,0 -14.489505,-13.57587 -14.489505,-24.58716 0,-11.01129 8.012286,-15.41284 14.489505,-15.41284 6.477221,0 14.938792,4.16141 14.938792,15.41284 C 34.714149,283.66427 19.775357,297 19.775357,297 z"
       style="fill:#666666;fill-opacity:1;stroke:none" />
    <ellipse
       sodipodi:cx="70.268692"
       sodipodi:cy="169.42744"
       sodipodi:rx="15.004569"
       sodipodi:ry="14.967523"
       d="m 85.273261,169.42744 c 0,8.26634 -6.717774,14.96753 -15.004569,14.96753 -8.286795,0 -15.004569,-6.70119 -15.004569,-14.96753 0,-8.26633 6.717774,-14.96752 15.004569,-14.96752 8.286795,0 15.004569,6.70119 15.004569,14.96752 z"
       transform="matrix(0.66592917,0,0,0.66592917,-26.793971,159.01813)"
       ry="14.967523"
       rx="15.004569"
       cy="169.42744"
       cx="70.268692"
       id="ellipse4749"
       style="fill:#ffffff;fill-opacity:1;stroke:#ffffff;stroke-width:2.84251475;stroke-miterlimit:4;stroke-opacity:1;stroke-dasharray:none" />
    <g
       id="g13"
       transform="matrix(0.06857231,0,0,0.06857231,2.9659114,252.96613)" />
    <g
       id="g15"
       transform="matrix(0.06857231,0,0,0.06857231,2.9659114,252.96613)" />
    <g
       id="g17"
       transform="matrix(0.06857231,0,0,0.06857231,2.9659114,252.96613)" />
    <g
       id="g19"
       transform="matrix(0.06857231,0,0,0.06857231,2.9659114,252.96613)" />
    <g
       id="g21"
       transform="matrix(0.06857231,0,0,0.06857231,2.9659114,252.96613)" />
    <g
       id="g23"
       transform="matrix(0.06857231,0,0,0.06857231,2.9659114,252.96613)" />
    <g
       id="g25"
       transform="matrix(0.06857231,0,0,0.06857231,2.9659114,252.96613)" />
    <g
       id="g27"
       transform="matrix(0.06857231,0,0,0.06857231,2.9659114,252.96613)" />
    <g
       id="g29"
       transform="matrix(0.06857231,0,0,0.06857231,2.9659114,252.96613)" />
    <g
       id="g31"
       transform="matrix(0.06857231,0,0,0.06857231,2.9659114,252.96613)" />
    <g
       id="g33"
       transform="matrix(0.06857231,0,0,0.06857231,2.9659114,252.96613)" />
    <g
       id="g35"
       transform="matrix(0.06857231,0,0,0.06857231,2.9659114,252.96613)" />
    <g
       id="g37"
       transform="matrix(0.06857231,0,0,0.06857231,2.9659114,252.96613)" />
    <g
       id="g39"
       transform="matrix(0.06857231,0,0,0.06857231,2.9659114,252.96613)" />
    <g
       id="g41"
       transform="matrix(0.06857231,0,0,0.06857231,2.9659114,252.96613)" />
    <path
       d="m 18.873233,263.3963 c -0.223127,0 -0.424754,0.13143 -0.514844,0.33549 l -0.683233,1.5484 -2.200669,1.27034 -1.68389,-0.18323 c -0.221938,-0.0242 -0.43685,0.0854 -0.548393,0.27871 l -1.126464,1.95164 c -0.11155,0.19332 -0.09833,0.43417 0.03355,0.6142 l 0.998075,1.36195 v 2.54196 l -0.998075,1.36195 c -0.131875,0.18003 -0.145093,0.4209 -0.03355,0.6142 l 1.126464,1.95164 c 0.111514,0.19325 0.327002,0.30294 0.549038,0.27871 l 1.683245,-0.18323 2.200669,1.27034 0.683233,1.5484 c 0.0901,0.20403 0.29172,0.33549 0.514844,0.33549 h 2.253574 c 0.223127,0 0.424755,-0.13143 0.514844,-0.33549 l 0.683233,-1.5484 2.20067,-1.27034 1.683244,0.18323 c 0.222103,0.0242 0.437495,-0.0855 0.549038,-0.27871 l 1.126464,-1.95164 c 0.11155,-0.19332 0.09833,-0.43421 -0.03355,-0.6142 l -0.998075,-1.36195 v -2.54196 l 0.998075,-1.36195 c 0.131875,-0.18003 0.145093,-0.4209 0.03355,-0.6142 l -1.126464,-1.95164 c -0.111547,-0.19325 -0.3271,-0.30282 -0.549038,-0.27871 l -1.683244,0.18323 -2.20067,-1.27034 -0.683233,-1.5484 c -0.09009,-0.20402 -0.291717,-0.33549 -0.514844,-0.33549 z m 1.122594,4.80908 a 3.6483783,3.6393703 0 0 1 0.0039,0 3.6483783,3.6393703 0 0 1 3.648428,3.6394 3.6483783,3.6393703 0 0 1 -3.648428,3.63939 3.6483783,3.6393703 0 0 1 -3.647781,-3.63939 3.6483783,3.6393703 0 0 1 3.643911,-3.6394 z"
       style="fill:#b3b3b3;stroke-width:0.0330019"
       id="path3" />
    <path
       r="146.84607"
       cy="129.15585"
       cx="-27.8631"
       id="path3106"
       style="fill:#ffffff;fill-opacity:1;fill-rule:nonzero;stroke:none;stroke-width:0.0246392"
       d="" />
  </g>
</svg>
